<!DOCTYPE svg PUBLIC "-//W3C//DTD SVG 20010904//EN" "http://www.w3.org/TR/2001/REC-SVG-20010904/DTD/svg10.dtd">
<svg version="1.0" xmlns="http://www.w3.org/2000/svg" width="1308px" height="604px" viewBox="0 0 13080 6040" preserveAspectRatio="xMidYMid meet">
<g id="layer101" fill="#030303" stroke="none">
 <path d="M10 5335 l0 -195 215 0 215 0 0 195 0 195 -215 0 -215 0 0 -195z"/>
 <path d="M800 5335 l0 -195 175 0 175 0 0 195 0 195 -175 0 -175 0 0 -195z"/>
 <path d="M1500 5335 l0 -195 190 0 190 0 0 195 0 195 -190 0 -190 0 0 -195z"/>
 <path d="M2260 5335 l0 -195 195 0 195 0 0 195 0 195 -195 0 -195 0 0 -195z"/>
 <path d="M4490 5335 l0 -195 180 0 180 0 0 195 0 195 -180 0 -180 0 0 -195z"/>
 <path d="M3020 5330 l0 -190 210 0 210 0 0 190 0 190 -210 0 -210 0 0 -190z"/>
 <path d="M3780 5330 l0 -190 185 0 185 0 0 190 0 190 -185 0 -185 0 0 -190z"/>
 <path d="M5230 5330 l0 -190 185 0 185 0 0 190 0 190 -185 0 -185 0 0 -190z"/>
 <path d="M8260 5330 l0 -190 180 0 180 0 0 190 0 190 -180 0 -180 0 0 -190z"/>
 <path d="M5980 5325 l0 -185 200 0 200 0 0 185 0 185 -200 0 -200 0 0 -185z"/>
 <path d="M6750 5325 l0 -185 190 0 190 0 0 185 0 185 -190 0 -190 0 0 -185z"/>
 <path d="M9000 5325 l0 -185 200 0 200 0 0 185 0 185 -200 0 -200 0 0 -185z"/>
 <path d="M9780 5325 l0 -185 195 0 195 0 0 185 0 185 -195 0 -195 0 0 -185z"/>
 <path d="M10530 5325 l0 -185 195 0 195 0 0 185 0 185 -195 0 -195 0 0 -185z"/>
 <path d="M7520 5320 l0 -180 190 0 190 0 0 180 0 180 -190 0 -190 0 0 -180z"/>
 <path d="M11270 5320 l0 -180 175 0 175 0 0 180 0 180 -175 0 -175 0 0 -180z"/>
 <path d="M11910 5320 l0 -180 210 0 210 0 0 180 0 180 -210 0 -210 0 0 -180z"/>
 <path d="M10 4625 l0 -195 215 0 215 0 0 195 0 195 -215 0 -215 0 0 -195z"/>
 <path d="M800 4625 l0 -195 175 0 175 0 0 195 0 195 -175 0 -175 0 0 -195z"/>
 <path d="M1500 4625 l0 -195 190 0 190 0 0 195 0 195 -190 0 -190 0 0 -195z"/>
 <path d="M2260 4625 l0 -195 195 0 195 0 0 195 0 195 -195 0 -195 0 0 -195z"/>
 <path d="M3020 4625 l0 -195 210 0 210 0 0 195 0 195 -210 0 -210 0 0 -195z"/>
 <path d="M3780 4625 l0 -195 185 0 185 0 0 195 0 195 -185 0 -185 0 0 -195z"/>
 <path d="M4490 4625 l0 -195 180 0 180 0 0 195 0 195 -180 0 -180 0 0 -195z"/>
 <path d="M5230 4625 l0 -195 185 0 185 0 0 195 0 195 -185 0 -185 0 0 -195z"/>
 <path d="M5980 4625 l0 -195 200 0 200 0 0 195 0 195 -200 0 -200 0 0 -195z"/>
 <path d="M6750 4625 l0 -195 190 0 190 0 0 195 0 195 -190 0 -190 0 0 -195z"/>
 <path d="M7520 4625 l0 -195 190 0 190 0 0 195 0 195 -190 0 -190 0 0 -195z"/>
 <path d="M8260 4625 l0 -195 180 0 180 0 0 195 0 195 -180 0 -180 0 0 -195z"/>
 <path d="M9000 4625 l0 -195 200 0 200 0 0 195 0 195 -200 0 -200 0 0 -195z"/>
 <path d="M9780 4625 l0 -195 195 0 195 0 0 195 0 195 -195 0 -195 0 0 -195z"/>
 <path d="M10530 4625 l0 -195 195 0 195 0 0 195 0 195 -195 0 -195 0 0 -195z"/>
 <path d="M11270 4625 l0 -195 175 0 175 0 0 195 0 195 -175 0 -175 0 0 -195z"/>
 <path d="M11910 4625 l0 -195 210 0 210 0 0 195 0 195 -210 0 -210 0 0 -195z"/>
 <path d="M10 3915 l0 -195 215 0 215 0 0 195 0 195 -215 0 -215 0 0 -195z"/>
 <path d="M800 3915 l0 -195 175 0 175 0 0 195 0 195 -175 0 -175 0 0 -195z"/>
 <path d="M1500 3915 l0 -195 190 0 190 0 0 195 0 195 -190 0 -190 0 0 -195z"/>
 <path d="M2260 3915 l0 -195 195 0 195 0 0 195 0 195 -195 0 -195 0 0 -195z"/>
 <path d="M3020 3915 l0 -195 210 0 210 0 0 195 0 195 -210 0 -210 0 0 -195z"/>
 <path d="M3780 3915 l0 -195 185 0 185 0 0 195 0 195 -185 0 -185 0 0 -195z"/>
 <path d="M4490 3915 l0 -195 180 0 180 0 0 195 0 195 -180 0 -180 0 0 -195z"/>
 <path d="M5230 3915 l0 -195 185 0 185 0 0 195 0 195 -185 0 -185 0 0 -195z"/>
 <path d="M5980 3915 l0 -195 200 0 200 0 0 195 0 195 -200 0 -200 0 0 -195z"/>
 <path d="M6750 3915 l0 -195 190 0 190 0 0 195 0 195 -190 0 -190 0 0 -195z"/>
 <path d="M7520 3915 l0 -195 190 0 190 0 0 195 0 195 -190 0 -190 0 0 -195z"/>
 <path d="M8260 3915 l0 -195 180 0 180 0 0 195 0 195 -180 0 -180 0 0 -195z"/>
 <path d="M9000 3915 l0 -195 200 0 200 0 0 195 0 195 -200 0 -200 0 0 -195z"/>
 <path d="M9780 3915 l0 -195 195 0 195 0 0 195 0 195 -195 0 -195 0 0 -195z"/>
 <path d="M10530 3915 l0 -195 195 0 195 0 0 195 0 195 -195 0 -195 0 0 -195z"/>
 <path d="M11270 3915 l0 -195 175 0 175 0 0 195 0 195 -175 0 -175 0 0 -195z"/>
 <path d="M11910 3915 l0 -195 210 0 210 0 0 195 0 195 -210 0 -210 0 0 -195z"/>
 <path d="M10 3230 l0 -190 215 0 215 0 0 190 0 190 -215 0 -215 0 0 -190z"/>
 <path d="M800 3230 l0 -190 175 0 175 0 0 190 0 190 -175 0 -175 0 0 -190z"/>
 <path d="M1500 3230 l0 -190 190 0 190 0 0 190 0 190 -190 0 -190 0 0 -190z"/>
 <path d="M2260 3230 l0 -190 195 0 195 0 0 190 0 190 -195 0 -195 0 0 -190z"/>
 <path d="M3020 3230 l0 -190 210 0 210 0 0 190 0 190 -210 0 -210 0 0 -190z"/>
 <path d="M3780 3230 l0 -190 185 0 185 0 0 190 0 190 -185 0 -185 0 0 -190z"/>
 <path d="M4490 3230 l0 -190 180 0 180 0 0 190 0 190 -180 0 -180 0 0 -190z"/>
 <path d="M5230 3230 l0 -190 185 0 185 0 0 190 0 190 -185 0 -185 0 0 -190z"/>
 <path d="M5980 3230 l0 -190 200 0 200 0 0 190 0 190 -200 0 -200 0 0 -190z"/>
 <path d="M6750 3230 l0 -190 190 0 190 0 0 190 0 190 -190 0 -190 0 0 -190z"/>
 <path d="M7520 3230 l0 -190 190 0 190 0 0 190 0 190 -190 0 -190 0 0 -190z"/>
 <path d="M8260 3230 l0 -190 180 0 180 0 0 190 0 190 -180 0 -180 0 0 -190z"/>
 <path d="M9000 3230 l0 -190 200 0 200 0 0 190 0 190 -200 0 -200 0 0 -190z"/>
 <path d="M9780 3230 l0 -190 195 0 195 0 0 190 0 190 -195 0 -195 0 0 -190z"/>
 <path d="M10530 3230 l0 -190 195 0 195 0 0 190 0 190 -195 0 -195 0 0 -190z"/>
 <path d="M11270 3230 l0 -190 175 0 175 0 0 190 0 190 -175 0 -175 0 0 -190z"/>
 <path d="M11910 3230 l0 -190 210 0 210 0 0 190 0 190 -210 0 -210 0 0 -190z"/>
 <path d="M10 2515 l0 -185 215 0 215 0 0 185 0 185 -215 0 -215 0 0 -185z"/>
 <path d="M800 2515 l0 -185 175 0 175 0 0 185 0 185 -175 0 -175 0 0 -185z"/>
 <path d="M1500 2515 l0 -185 190 0 190 0 0 185 0 185 -190 0 -190 0 0 -185z"/>
 <path d="M2260 2515 l0 -185 195 0 195 0 0 185 0 185 -195 0 -195 0 0 -185z"/>
 <path d="M3020 2515 l0 -185 210 0 210 0 0 185 0 185 -210 0 -210 0 0 -185z"/>
 <path d="M3780 2515 l0 -185 185 0 185 0 0 185 0 185 -185 0 -185 0 0 -185z"/>
 <path d="M4490 2515 l0 -185 180 0 180 0 0 185 0 185 -180 0 -180 0 0 -185z"/>
 <path d="M5230 2515 l0 -185 185 0 185 0 0 185 0 185 -185 0 -185 0 0 -185z"/>
 <path d="M5980 2515 l0 -185 200 0 200 0 0 185 0 185 -200 0 -200 0 0 -185z"/>
 <path d="M6750 2515 l0 -185 190 0 190 0 0 185 0 185 -190 0 -190 0 0 -185z"/>
 <path d="M7520 2515 l0 -185 190 0 190 0 0 185 0 185 -190 0 -190 0 0 -185z"/>
 <path d="M8260 2515 l0 -185 180 0 180 0 0 185 0 185 -180 0 -180 0 0 -185z"/>
 <path d="M9000 2515 l0 -185 200 0 200 0 0 185 0 185 -200 0 -200 0 0 -185z"/>
 <path d="M9780 2515 l0 -185 195 0 195 0 0 185 0 185 -195 0 -195 0 0 -185z"/>
 <path d="M10530 2515 l0 -185 195 0 195 0 0 185 0 185 -195 0 -195 0 0 -185z"/>
 <path d="M11270 2515 l0 -185 175 0 175 0 0 185 0 185 -175 0 -175 0 0 -185z"/>
 <path d="M11910 2515 l0 -185 210 0 210 0 0 185 0 185 -210 0 -210 0 0 -185z"/>
 <path d="M10 1740 l0 -190 215 0 215 0 0 190 0 190 -215 0 -215 0 0 -190z"/>
 <path d="M800 1740 l0 -190 175 0 175 0 0 190 0 190 -175 0 -175 0 0 -190z"/>
 <path d="M1500 1740 l0 -190 190 0 190 0 0 190 0 190 -190 0 -190 0 0 -190z"/>
 <path d="M2260 1740 l0 -190 195 0 195 0 0 190 0 190 -195 0 -195 0 0 -190z"/>
 <path d="M3020 1740 l0 -190 210 0 210 0 0 190 0 190 -210 0 -210 0 0 -190z"/>
 <path d="M3780 1740 l0 -190 185 0 185 0 0 190 0 190 -185 0 -185 0 0 -190z"/>
 <path d="M4490 1740 l0 -190 180 0 180 0 0 190 0 190 -180 0 -180 0 0 -190z"/>
 <path d="M5230 1740 l0 -190 185 0 185 0 0 190 0 190 -185 0 -185 0 0 -190z"/>
 <path d="M5980 1740 l0 -190 200 0 200 0 0 190 0 190 -200 0 -200 0 0 -190z"/>
 <path d="M6750 1740 l0 -190 190 0 190 0 0 190 0 190 -190 0 -190 0 0 -190z"/>
 <path d="M7520 1740 l0 -190 190 0 190 0 0 190 0 190 -190 0 -190 0 0 -190z"/>
 <path d="M8260 1740 l0 -190 180 0 180 0 0 190 0 190 -180 0 -180 0 0 -190z"/>
 <path d="M9000 1740 l0 -190 200 0 200 0 0 190 0 190 -200 0 -200 0 0 -190z"/>
 <path d="M9780 1740 l0 -190 195 0 195 0 0 190 0 190 -195 0 -195 0 0 -190z"/>
 <path d="M10530 1740 l0 -190 195 0 195 0 0 190 0 190 -195 0 -195 0 0 -190z"/>
 <path d="M11270 1740 l0 -190 175 0 175 0 0 190 0 190 -175 0 -175 0 0 -190z"/>
 <path d="M11910 1740 l0 -190 210 0 210 0 0 190 0 190 -210 0 -210 0 0 -190z"/>
 <path d="M10 970 l0 -170 215 0 215 0 0 170 0 170 -215 0 -215 0 0 -170z"/>
 <path d="M800 970 l0 -170 175 0 175 0 0 170 0 170 -175 0 -175 0 0 -170z"/>
 <path d="M1500 970 l0 -170 190 0 190 0 0 170 0 170 -190 0 -190 0 0 -170z"/>
 <path d="M2260 970 l0 -170 195 0 195 0 0 170 0 170 -195 0 -195 0 0 -170z"/>
 <path d="M3020 970 l0 -170 210 0 210 0 0 170 0 170 -210 0 -210 0 0 -170z"/>
 <path d="M3780 970 l0 -170 185 0 185 0 0 170 0 170 -185 0 -185 0 0 -170z"/>
 <path d="M4490 970 l0 -170 180 0 180 0 0 170 0 170 -180 0 -180 0 0 -170z"/>
 <path d="M5230 970 l0 -170 185 0 185 0 0 170 0 170 -185 0 -185 0 0 -170z"/>
 <path d="M5980 970 l0 -170 200 0 200 0 0 170 0 170 -200 0 -200 0 0 -170z"/>
 <path d="M6750 970 l0 -170 190 0 190 0 0 170 0 170 -190 0 -190 0 0 -170z"/>
 <path d="M7520 970 l0 -170 190 0 190 0 0 170 0 170 -190 0 -190 0 0 -170z"/>
 <path d="M8260 970 l0 -170 180 0 180 0 0 170 0 170 -180 0 -180 0 0 -170z"/>
 <path d="M9000 970 l0 -170 200 0 200 0 0 170 0 170 -200 0 -200 0 0 -170z"/>
 <path d="M9780 970 l0 -170 195 0 195 0 0 170 0 170 -195 0 -195 0 0 -170z"/>
 <path d="M10530 970 l0 -170 195 0 195 0 0 170 0 170 -195 0 -195 0 0 -170z"/>
 <path d="M11270 970 l0 -170 175 0 175 0 0 170 0 170 -175 0 -175 0 0 -170z"/>
 <path d="M11910 970 l0 -170 210 0 210 0 0 170 0 170 -210 0 -210 0 0 -170z"/>
 <path d="M0 190 l0 -190 3270 0 c2173 0 3270 3 3270 10 0 6 -35 10 -85 10 l-85 0 0 180 0 180 -200 0 -200 0 0 -180 0 -180 -190 0 -190 0 0 180 0 180 -185 0 -185 0 0 -180 0 -180 -190 0 -190 0 0 180 0 180 -180 0 -180 0 0 -180 0 -180 -170 0 -170 0 0 180 0 180 -185 0 -185 0 0 -180 0 -180 -170 0 -170 0 0 180 0 180 -210 0 -210 0 0 -180 0 -180 -185 0 -185 0 0 180 0 180 -195 0 -195 0 0 -180 0 -180 -190 0 -190 0 0 180 0 180 -190 0 -190 0 0 -180 0 -180 -175 0 -175 0 0 180 0 180 -175 0 -175 0 0 -180 0 -180 -180 0 -180 0 0 180 0 180 -215 0 -215 0 0 -190z"/>
 <path d="M6740 190 l0 -190 190 0 190 0 0 190 0 190 -190 0 -190 0 0 -190z"/>
 <path d="M7510 190 l0 -190 190 0 190 0 0 190 0 190 -190 0 -190 0 0 -190z"/>
 <path d="M8250 200 l0 -180 180 0 180 0 0 180 0 180 -180 0 -180 0 0 -180z"/>
 <path d="M8990 195 l0 -185 200 0 200 0 0 185 0 185 -200 0 -200 0 0 -185z"/>
 <path d="M9770 195 l0 -185 195 0 195 0 0 185 0 185 -195 0 -195 0 0 -185z"/>
 <path d="M10520 195 l0 -185 195 0 195 0 0 185 0 185 -195 0 -195 0 0 -185z"/>
 <path d="M11260 190 l0 -190 175 0 175 0 0 190 0 190 -175 0 -175 0 0 -190z"/>
 <path d="M11900 190 l0 -190 210 0 210 0 0 190 0 190 -210 0 -210 0 0 -190z"/>
 </g>
<g id="layer102" fill="#fdfdfd" stroke="none">
 <path d="M10 5335 l0 -195 215 0 215 0 0 195 0 195 -215 0 -215 0 0 -195z m309 131 c10 -11 7 -17 -11 -30 -12 -9 -32 -16 -43 -16 -34 0 -40 -13 -40 -87 0 -54 -4 -77 -17 -89 -9 -9 -20 -14 -26 -10 -5 3 -15 51 -23 106 -14 115 -12 120 53 131 70 11 95 10 107 -5z"/>
 <path d="M800 5335 l0 -195 175 0 175 0 0 195 0 195 -175 0 -175 0 0 -195z m220 105 c16 -16 20 -33 20 -80 0 -76 -15 -110 -49 -110 -36 0 -90 35 -101 65 -14 36 15 102 54 126 39 24 51 24 76 -1z"/>
 <path d="M948 5376 c-12 -28 -4 -60 15 -54 15 6 22 78 7 78 -6 0 -15 -11 -22 -24z"/>
 <path d="M1500 5335 l0 -195 190 0 190 0 0 195 0 195 -190 0 -190 0 0 -195z m147 113 c40 -43 123 -172 123 -190 0 -46 -55 0 -129 106 -39 57 -49 85 -34 99 11 11 18 8 40 -15z"/>
 <path d="M2260 5335 l0 -195 195 0 195 0 0 195 0 195 -195 0 -195 0 0 -195z m188 91 c5 -13 35 -37 65 -54 61 -34 74 -54 53 -84 -23 -33 -53 -49 -106 -55 -38 -4 -50 -2 -53 8 -35 129 -37 151 -20 180 21 35 46 37 61 5z"/>
 <path d="M2452 5313 c4 -23 58 -31 58 -10 0 15 -20 27 -47 27 -8 0 -13 -7 -11 -17z"/>
 <path d="M4490 5335 l0 -195 180 0 180 0 0 195 0 195 -180 0 -180 0 0 -195z m260 95 c5 -8 12 -48 16 -89 6 -72 6 -76 -19 -97 -32 -28 -87 -38 -134 -24 -59 16 -63 22 -69 96 -7 85 5 121 43 127 55 10 154 1 163 -13z"/>
 <path d="M4607 5384 c-10 -11 -9 -82 2 -89 5 -3 11 9 13 27 4 46 34 46 30 1 -2 -29 1 -33 22 -33 29 0 39 23 28 65 -7 26 -13 30 -48 33 -22 2 -43 0 -47 -4z"/>
 <path d="M3020 5330 l0 -190 210 0 210 0 0 190 0 190 -210 0 -210 0 0 -190z m295 108 c13 -12 25 -148 15 -173 -11 -30 -56 -40 -143 -32 -73 7 -87 21 -87 87 0 62 17 109 44 121 23 10 161 8 171 -3z"/>
 <path d="M3780 5330 l0 -190 70 0 70 0 0 29 c0 15 -10 41 -22 57 -31 38 -40 191 -13 217 22 23 52 21 105 -5 l45 -23 3 -75 c3 -81 1 -85 -60 -131 -17 -12 -28 -30 -28 -45 0 -24 1 -24 100 -24 l100 0 0 190 0 190 -185 0 -185 0 0 -190z"/>
 <path d="M5230 5330 l0 -190 185 0 185 0 0 190 0 190 -185 0 -185 0 0 -190z m212 71 c41 17 55 1 38 -41 -11 -28 -11 -33 9 -54 42 -44 20 -74 -36 -48 -29 14 -33 13 -58 -7 -15 -11 -34 -21 -43 -21 -15 0 -14 10 9 66 11 28 10 34 -9 59 -42 53 -26 85 26 54 30 -17 39 -18 64 -8z"/>
 <path d="M8260 5330 l0 -190 180 0 180 0 0 190 0 190 -180 0 -180 0 0 -190z m256 35 c15 -36 18 -82 8 -109 -8 -22 -37 -20 -65 3 -24 19 -24 19 -57 -11 -19 -16 -38 -28 -44 -26 -15 5 -21 150 -6 159 15 9 38 -8 38 -27 0 -8 4 -14 9 -14 5 0 23 -3 40 -6 29 -6 31 -5 31 23 0 54 25 59 46 8z"/>
 <path d="M5980 5325 l0 -185 200 0 200 0 0 185 0 185 -200 0 -200 0 0 -185z m195 85 c53 -10 105 -53 105 -88 0 -42 -50 -92 -92 -92 -60 0 -89 38 -107 135 -11 58 -7 69 23 60 11 -4 44 -11 71 -15z"/>
 <path d="M6186 5315 c-15 -23 -15 -26 -1 -32 21 -7 50 21 42 41 -9 23 -22 20 -41 -9z"/>
 <path d="M6750 5325 l0 -185 190 0 190 0 0 185 0 185 -190 0 -190 0 0 -185z m245 85 c6 -10 -21 -25 -67 -34 -39 -9 -35 -20 15 -40 40 -16 41 -18 23 -31 -11 -8 -26 -15 -33 -15 -7 0 -13 -4 -13 -9 0 -6 19 -11 43 -13 53 -4 56 -25 5 -51 -49 -27 -85 -17 -104 28 -14 35 -20 156 -7 168 10 11 131 8 138 -3z"/>
 <path d="M9000 5325 l0 -185 200 0 200 0 0 185 0 185 -200 0 -200 0 0 -185z m208 71 c22 -8 50 -12 61 -9 22 5 24 -1 36 -85 6 -44 -9 -87 -26 -77 -5 4 -20 27 -33 53 -52 103 -93 107 -98 10 -2 -47 -7 -63 -18 -63 -18 0 -33 75 -25 122 5 27 30 52 61 63 1 0 20 -6 42 -14z"/>
 <path d="M9780 5325 l0 -185 195 0 195 0 0 185 0 185 -195 0 -195 0 0 -185z m157 20 c34 -36 64 -62 66 -57 2 4 10 31 17 60 9 40 16 52 31 52 14 0 19 -7 19 -28 0 -42 -28 -127 -50 -154 l-20 -23 -32 36 c-80 88 -118 139 -118 158 0 35 22 24 87 -44z"/>
 <path d="M10530 5325 l0 -185 195 0 195 0 0 185 0 185 -195 0 -195 0 0 -185z m190 48 c0 -21 15 -15 38 17 32 43 46 39 39 -12 -4 -28 0 -52 10 -71 20 -39 5 -73 -42 -93 -77 -32 -95 -11 -95 110 0 79 15 110 37 79 7 -9 13 -23 13 -30z"/>
 <path d="M7520 5320 l0 -180 190 0 190 0 0 180 0 180 -190 0 -190 0 0 -180z m140 36 c9 -16 21 -31 28 -34 13 -4 56 36 64 59 4 12 7 12 21 1 10 -8 18 -38 23 -79 6 -57 4 -68 -11 -79 -23 -17 -45 -1 -45 32 0 21 -5 24 -35 24 -31 0 -35 -3 -35 -27 0 -36 -14 -57 -33 -50 -15 6 -27 69 -27 144 0 36 3 44 17 41 9 -2 24 -16 33 -32z"/>
 <path d="M11270 5320 l0 -180 175 0 175 0 0 180 0 180 -175 0 -175 0 0 -180z m153 51 l8 -34 33 32 c17 17 35 31 39 31 11 0 8 -39 -3 -61 -8 -15 -6 -26 12 -49 l22 -30 -21 -28 c-27 -36 -61 -53 -103 -50 l-35 3 -3 80 c-4 103 4 147 25 143 9 -2 21 -18 26 -37z"/>
 <path d="M11422 5253 c2 -10 12 -18 23 -18 11 0 21 8 23 18 3 13 -3 17 -23 17 -20 0 -26 -4 -23 -17z"/>
 <path d="M11910 5320 l0 -180 210 0 210 0 0 180 0 180 -210 0 -210 0 0 -180z m115 60 l30 -20 17 22 c13 18 19 20 32 9 20 -17 30 -88 21 -157 -5 -44 -10 -55 -23 -52 -9 2 -20 19 -25 41 l-9 37 -35 -30 c-54 -48 -72 -22 -27 37 l26 35 -37 38 c-53 54 -32 81 30 40z"/>
 <path d="M10 4625 l0 -195 215 0 215 0 0 195 0 195 -215 0 -215 0 0 -195z m209 127 c19 -41 29 -40 64 3 44 55 78 43 56 -20 -12 -31 -11 -37 8 -57 31 -36 34 -45 22 -72 -22 -47 -136 -84 -177 -57 -15 9 -30 196 -18 226 9 24 29 14 45 -23z"/>
 <path d="M242 4628 c3 -25 25 -33 48 -18 13 9 12 12 -4 25 -29 22 -48 19 -44 -7z"/>
 <path d="M800 4625 l0 -195 175 0 175 0 0 195 0 195 -175 0 -175 0 0 -195z m144 127 c6 -23 13 -42 16 -42 3 0 21 16 40 35 39 40 43 41 64 19 22 -21 23 -176 1 -194 -23 -19 -35 -2 -35 51 0 27 -3 49 -7 49 -3 0 -30 -25 -59 -56 -29 -32 -57 -53 -63 -50 -12 8 -15 174 -5 214 10 37 38 23 48 -26z"/>
 <path d="M1500 4625 l0 -195 190 0 190 0 0 195 0 195 -190 0 -190 0 0 -195z m298 143 c2 -11 -5 -19 -21 -23 -23 -6 -25 -12 -29 -79 -4 -84 -22 -121 -45 -90 -8 11 -13 47 -13 91 l0 73 -43 0 c-51 0 -60 6 -46 32 9 17 20 18 102 16 77 -3 92 -6 95 -20z"/>
 <path d="M2260 4625 l0 -195 195 0 195 0 0 195 0 195 -195 0 -195 0 0 -195z m285 142 c23 -17 12 -37 -21 -37 -22 0 -24 -4 -24 -44 0 -40 2 -44 30 -49 35 -8 40 -32 8 -41 -37 -10 -168 -7 -168 4 0 5 12 17 28 27 52 33 54 53 11 92 -35 33 -31 39 39 51 70 11 76 11 97 -3z"/>
 <path d="M3020 4625 l0 -195 210 0 210 0 0 195 0 195 -210 0 -210 0 0 -195z m177 118 c56 -62 106 -141 100 -157 -9 -22 -21 -20 -57 10 l-31 27 -20 -22 c-39 -42 -58 -19 -30 37 l20 39 -26 36 c-25 35 -26 67 -2 67 6 0 27 -17 46 -37z"/>
 <path d="M3780 4625 l0 -195 185 0 185 0 0 195 0 195 -100 0 c-101 0 -121 -7 -75 -28 33 -15 32 -40 -2 -48 -62 -13 -67 -21 -30 -54 20 -20 21 -22 5 -31 -31 -17 -21 -38 19 -41 26 -2 39 -8 41 -20 4 -19 -42 -32 -98 -26 -29 3 -35 8 -42 36 -5 18 -8 65 -6 105 3 66 5 72 27 77 14 3 26 11 29 18 3 9 -16 12 -67 12 l-71 0 0 -195z"/>
 <path d="M4490 4625 l0 -195 180 0 180 0 0 195 0 195 -180 0 -180 0 0 -195z m196 112 c12 -11 16 -123 5 -150 -17 -44 -36 -28 -39 33 -4 66 -14 80 -59 80 -37 0 -56 25 -32 41 14 10 114 7 125 -4z"/>
 <path d="M5230 4625 l0 -195 185 0 185 0 0 195 0 195 -185 0 -185 0 0 -195z m260 106 c40 -28 53 -65 40 -106 -22 -67 -107 -98 -150 -55 -50 50 -49 122 2 165 34 29 63 28 108 -4z"/>
 <path d="M5400 4684 c-32 -38 36 -106 74 -74 22 17 20 46 -4 70 -24 24 -53 26 -70 4z"/>
 <path d="M5980 4625 l0 -195 200 0 200 0 0 195 0 195 -200 0 -200 0 0 -195z m263 99 c47 -8 48 -26 6 -114 -61 -129 -84 -132 -139 -18 -41 85 -49 123 -27 131 18 8 116 8 160 1z"/>
 <path d="M6750 4625 l0 -195 190 0 190 0 0 195 0 195 -190 0 -190 0 0 -195z m127 92 c4 -8 30 -17 56 -20 62 -9 83 -21 102 -58 29 -55 -17 -129 -80 -129 -58 0 -125 72 -111 118 4 11 2 32 -4 47 -15 40 17 76 37 42z"/>
 <path d="M6950 4626 c0 -8 -10 -22 -22 -31 -20 -13 -21 -17 -8 -25 22 -14 56 -12 70 5 10 12 9 20 -4 40 -18 28 -36 33 -36 11z"/>
 <path d="M7520 4625 l0 -195 190 0 190 0 0 195 0 195 -190 0 -190 0 0 -195z m261 66 c16 -16 29 -34 29 -40 0 -18 -53 -51 -83 -51 -25 0 -28 -2 -17 -15 7 -8 25 -15 41 -15 35 0 44 -13 23 -34 -51 -51 -167 34 -148 109 9 35 59 75 96 75 19 0 39 -10 59 -29z"/>
 <path d="M7680 4655 c-10 -12 -10 -19 -2 -27 9 -9 12 -9 12 -1 0 6 7 19 16 27 13 13 13 16 1 16 -8 0 -20 -7 -27 -15z"/>
 <path d="M8260 4625 l0 -195 180 0 180 0 0 195 0 195 -180 0 -180 0 0 -195z m225 85 c21 -17 21 -143 0 -160 -24 -20 -89 -24 -104 -6 -15 18 -20 154 -6 175 9 16 88 9 110 -9z"/>
 <path d="M8422 4668 c6 -18 28 -21 28 -4 0 9 -7 16 -16 16 -9 0 -14 -5 -12 -12z"/>
 <path d="M9000 4625 l0 -195 200 0 200 0 0 195 0 195 -200 0 -200 0 0 -195z m245 103 c3 -7 9 -42 14 -78 5 -36 12 -75 16 -87 10 -31 -24 -47 -89 -39 -28 4 -58 11 -66 17 -13 8 -12 11 5 22 11 6 31 14 45 17 23 5 25 11 31 71 3 35 9 70 13 77 9 16 25 15 31 0z"/>
 <path d="M9780 4625 l0 -195 195 0 195 0 0 195 0 195 -195 0 -195 0 0 -195z m267 99 c25 -5 37 -36 37 -96 1 -107 -149 -117 -198 -13 -16 32 -16 41 -5 63 29 54 71 66 166 46z"/>
 <path d="M9937 4673 c-10 -9 -8 -43 2 -43 5 0 16 11 25 25 16 24 15 25 -2 25 -10 0 -22 -3 -25 -7z"/>
 <path d="M9994 4616 c-10 -8 -16 -17 -12 -21 11 -11 48 5 48 21 0 18 -11 18 -36 0z"/>
 <path d="M10530 4625 l0 -195 195 0 195 0 0 195 0 195 -195 0 -195 0 0 -195z m188 89 c51 -35 46 -93 -12 -123 -30 -17 -24 -35 9 -27 33 8 40 -9 15 -34 -30 -30 -79 -24 -99 12 -14 25 -14 29 5 55 11 15 30 32 42 38 39 17 21 45 -28 45 -28 0 -36 21 -15 37 25 17 55 17 83 -3z"/>
 <path d="M11270 4625 l0 -195 175 0 175 0 0 195 0 195 -175 0 -175 0 0 -195z m270 79 c14 -36 13 -157 -2 -172 -8 -8 -46 -12 -105 -12 l-94 0 3 93 3 92 85 11 c47 6 88 12 93 13 4 0 12 -11 17 -25z"/>
 <path d="M11910 4625 l0 -195 210 0 210 0 0 195 0 195 -210 0 -210 0 0 -195z m185 91 c42 -18 52 -49 32 -107 -16 -48 -63 -89 -103 -89 -27 0 -31 10 -40 112 -6 75 -6 78 17 87 34 14 55 13 94 -3z"/>
 <path d="M12040 4660 c0 -14 26 -23 41 -15 8 6 7 10 -2 16 -19 12 -39 11 -39 -1z"/>
 <path d="M10 3915 l0 -195 215 0 215 0 0 195 0 195 -72 0 c-72 -1 -72 -1 -40 -15 l32 -14 0 -89 c0 -55 -4 -92 -12 -100 -18 -18 -202 -16 -221 2 -16 16 -31 143 -21 181 3 13 13 26 22 28 10 3 -13 5 -50 6 l-68 1 0 -195z"/>
 <path d="M800 3915 l0 -195 175 0 175 0 0 195 0 195 -175 0 -175 0 0 -195z m213 117 l31 -42 -22 -30 c-12 -16 -22 -36 -22 -44 0 -9 -9 -20 -19 -25 -21 -12 -34 -1 -45 35 -4 13 -19 24 -43 30 -50 12 -51 28 -4 58 21 14 42 35 46 46 10 32 43 21 78 -28z"/>
 <path d="M1500 3915 l0 -195 190 0 190 0 0 195 0 195 -190 0 -190 0 0 -195z m215 140 c82 -17 115 -46 115 -100 0 -62 -83 -101 -153 -72 -50 21 -60 47 -52 123 4 35 10 64 13 64 4 0 39 -7 77 -15z"/>
 <path d="M1748 3961 c-3 -22 0 -31 9 -31 21 0 28 30 11 47 -14 13 -16 11 -20 -16z"/>
 <path d="M2260 3915 l0 -195 118 0 c78 0 122 4 130 12 9 9 15 9 24 0 7 -7 36 -12 65 -12 l53 0 0 195 0 195 -195 0 -195 0 0 -195z m318 109 c28 -32 28 -45 -3 -74 -23 -22 -23 -24 -7 -37 16 -12 15 -14 -7 -33 -36 -30 -66 -25 -111 20 -31 31 -40 48 -40 73 0 78 112 111 168 51z"/>
 <path d="M2476 3997 c-14 -10 -16 -18 -9 -31 9 -16 11 -16 22 -2 8 9 20 16 28 16 18 0 11 24 -8 28 -8 1 -23 -4 -33 -11z"/>
 <path d="M3020 3915 l0 -195 210 0 210 0 0 195 0 195 -210 0 -210 0 0 -195z m220 130 c69 -51 89 -114 48 -152 -28 -26 -84 -42 -118 -33 -24 5 -25 10 -28 81 -5 128 24 158 98 104z"/>
 <path d="M3195 3990 c-10 -15 6 -80 19 -80 7 0 20 6 30 13 18 13 18 15 2 39 -19 29 -42 42 -51 28z"/>
 <path d="M3780 3915 l0 -195 185 0 185 0 0 195 0 195 -185 0 -185 0 0 -195z m238 117 c18 -12 -8 -93 -51 -156 -21 -31 -38 -70 -43 -101 l-7 -50 -8 58 c-6 43 -22 83 -60 147 -28 49 -48 94 -44 99 7 13 194 15 213 3z"/>
 <path d="M3911 3981 c-10 -7 -11 -13 -2 -30 15 -26 28 -27 36 -1 10 33 -6 48 -34 31z"/>
 <path d="M4490 3915 l0 -195 180 0 180 0 0 195 0 195 -180 0 -180 0 0 -195z m144 119 l17 -37 33 32 c38 37 49 30 40 -26 -5 -34 -2 -41 25 -66 58 -51 24 -75 -50 -34 -57 33 -59 33 -59 4 0 -13 -6 -32 -14 -43 -25 -34 -39 -3 -40 88 -1 121 15 150 48 82z"/>
 <path d="M5230 3915 l0 -195 185 0 185 0 0 195 0 195 -185 0 -185 0 0 -195z m218 153 c8 -8 6 -17 -8 -36 -29 -37 -25 -112 6 -112 22 0 16 -38 -7 -45 -27 -9 -106 3 -115 16 -3 6 3 21 15 33 28 30 29 86 1 93 -22 6 -26 33 -8 51 15 15 100 16 116 0z"/>
 <path d="M5980 3915 l0 -195 200 0 200 0 0 195 0 195 -200 0 -200 0 0 -195z m270 99 c14 -7 41 -27 60 -43 31 -26 33 -31 20 -47 -8 -9 -35 -30 -59 -46 -60 -38 -107 -37 -156 2 -21 17 -48 30 -61 30 -35 0 -54 10 -54 30 0 19 19 30 50 30 10 0 32 11 48 25 54 46 93 50 152 19z"/>
 <path d="M6750 3915 l0 -195 190 0 190 0 0 195 0 195 -190 0 -190 0 0 -195z m278 95 c63 -39 67 -105 9 -140 -50 -31 -93 -26 -133 14 -50 50 -43 105 19 131 44 19 67 18 105 -5z"/>
 <path d="M6927 3957 c-3 -8 -1 -20 3 -27 7 -11 11 -10 25 3 22 22 36 21 42 -3 7 -26 23 -26 23 0 0 34 -81 58 -93 27z"/>
 <path d="M7520 3915 l0 -195 190 0 190 0 0 195 0 195 -190 0 -190 0 0 -195z m140 84 c14 -9 49 -20 79 -24 30 -3 62 -10 72 -15 21 -12 42 -71 33 -94 -10 -27 -99 -64 -137 -57 -37 8 -77 60 -77 101 0 15 -9 39 -20 53 -23 29 -24 39 -8 55 12 12 16 10 58 -19z"/>
 <path d="M7760 3895 c0 -8 5 -15 10 -15 6 0 10 7 10 15 0 8 -4 15 -10 15 -5 0 -10 -7 -10 -15z"/>
 <path d="M8260 3915 l0 -195 180 0 180 0 0 195 0 195 -180 0 -180 0 0 -195z m124 89 l48 -36 22 21 c41 39 67 20 41 -29 -17 -33 -13 -47 23 -77 18 -15 8 -43 -15 -43 -10 0 -29 7 -42 16 -21 15 -25 15 -56 -2 -42 -23 -53 -14 -36 31 12 34 11 37 -23 77 -35 41 -42 58 -29 71 11 12 18 8 67 -29z"/>
 <path d="M9000 3915 l0 -195 200 0 200 0 0 195 0 195 -200 0 -200 0 0 -195z m274 105 c16 -16 -62 -198 -89 -207 -6 -2 -28 25 -48 59 -21 35 -47 78 -58 96 -24 38 -15 58 29 65 38 7 155 -2 166 -13z"/>
 <path d="M9780 3915 l0 -195 194 0 195 0 0 195 0 195 -194 0 -195 0 0 -195z m194 104 c33 -15 56 -66 56 -123 0 -37 -4 -48 -25 -62 -44 -29 -121 0 -151 58 -13 26 -14 38 -5 69 17 58 71 82 125 58z"/>
 <path d="M10530 4021 l0 -89 34 12 c37 13 98 63 115 95 15 28 28 27 60 -5 37 -37 133 -104 148 -104 30 0 11 -39 -31 -64 -47 -27 -96 -79 -96 -101 0 -7 -7 -19 -16 -26 -14 -12 -19 -9 -39 16 -13 17 -29 35 -35 40 -6 6 -31 29 -55 53 -24 23 -53 42 -64 42 -20 0 -21 -5 -21 -85 l0 -85 195 0 195 0 0 195 0 195 -195 0 -195 0 0 -89z"/>
 <path d="M11270 3915 l0 -195 175 0 175 0 0 195 0 195 -175 0 -175 0 0 -195z m226 64 c22 -18 17 -63 -11 -89 -31 -29 -32 -42 -2 -31 34 13 52 -1 38 -28 -19 -34 -80 -39 -118 -9 -21 17 -15 57 12 82 29 27 32 46 8 46 -10 0 -25 5 -33 10 -13 9 -12 12 5 26 22 17 77 13 101 -7z"/>
 <path d="M11910 3915 l0 -195 95 0 95 0 -13 28 c-6 15 -29 49 -50 76 -45 58 -45 91 2 141 16 16 31 42 35 58 9 37 33 34 50 -5 7 -18 25 -44 40 -57 14 -13 28 -39 32 -57 7 -36 -11 -100 -30 -111 -7 -5 -21 -23 -30 -40 l-17 -33 106 0 105 0 0 195 0 195 -210 0 -210 0 0 -195z"/>
 <path d="M167 4033 c-13 -12 -7 -70 7 -82 8 -7 37 -11 68 -9 l53 3 -4 40 c-1 22 -5 43 -8 48 -5 9 -107 10 -116 0z m83 -28 c0 -31 -37 -54 -47 -29 -4 11 2 23 16 36 30 23 31 23 31 -7z"/>
 <path d="M12053 3904 c-3 -8 -1 -20 6 -27 8 -8 11 -4 11 16 0 30 -7 35 -17 11z"/>
 <path d="M10 3230 l0 -190 215 0 215 0 0 190 0 190 -215 0 -215 0 0 -190z m212 139 c29 -21 32 -21 59 -5 27 16 28 16 39 -3 15 -29 13 -163 -4 -186 -12 -16 -16 -17 -30 -6 -9 7 -16 20 -16 28 0 11 -5 13 -17 8 -30 -13 -73 -18 -73 -8 0 5 16 24 35 43 l35 34 -47 41 c-33 29 -45 46 -40 58 8 23 23 21 59 -4z"/>
 <path d="M800 3230 l0 -190 175 0 175 0 0 190 0 190 -175 0 -175 0 0 -190z m141 108 c25 -21 48 -38 51 -38 2 0 10 18 17 40 12 40 45 61 71 45 25 -15 -16 -130 -63 -173 -35 -33 -53 -23 -112 58 -55 75 -64 98 -44 111 16 9 21 7 80 -43z"/>
 <path d="M1500 3230 l0 -190 190 0 190 0 0 190 0 190 -190 0 -190 0 0 -190z m249 166 c16 -19 -14 -36 -63 -36 l-36 0 0 -65 c0 -52 -4 -69 -21 -86 -17 -17 -23 -18 -36 -8 -21 18 -9 178 15 197 22 17 126 16 141 -2z"/>
 <path d="M2260 3230 l0 -190 195 0 195 0 0 190 0 190 -53 0 -54 0 8 -47 c12 -73 10 -107 -5 -129 -14 -19 -15 -19 -60 6 l-45 24 -21 -27 c-12 -15 -28 -27 -35 -27 -18 0 -29 73 -23 145 l5 55 -54 0 -53 0 0 -190z"/>
 <path d="M2415 3388 c7 -18 21 -35 32 -37 10 -2 23 -7 30 -13 15 -12 21 0 21 45 l0 37 -49 0 -48 0 14 -32z"/>
 <path d="M3020 3230 l0 -190 210 0 210 0 0 190 0 190 -210 0 -210 0 0 -190z m290 146 c0 -16 -21 -26 -56 -26 -13 0 -24 -3 -24 -6 0 -4 20 -29 45 -55 25 -26 45 -55 45 -63 0 -18 -48 -29 -109 -24 -53 4 -64 23 -24 40 15 7 30 13 32 15 2 1 -17 25 -43 53 -63 67 -54 80 55 80 61 0 79 -3 79 -14z"/>
 <path d="M3780 3230 l0 -190 185 0 185 0 0 190 0 190 -185 0 -185 0 0 -190z m150 162 c13 -11 23 -33 27 -59 3 -23 14 -51 25 -63 35 -37 17 -50 -66 -50 -41 0 -77 4 -81 9 -7 12 34 41 57 41 13 0 18 8 18 28 0 37 -10 50 -44 54 -40 4 -44 23 -9 42 36 20 46 20 73 -2z"/>
 <path d="M4490 3230 l0 -190 180 0 180 0 0 190 0 190 -180 0 -180 0 0 -190z m200 146 c6 -8 14 -49 17 -90 l6 -76 -37 0 c-53 0 -102 24 -120 59 -22 42 -20 64 9 95 19 20 33 26 68 26 27 0 49 -6 57 -14z"/>
 <path d="M4607 3344 c-21 -21 1 -74 31 -74 20 0 12 74 -8 78 -9 1 -19 0 -23 -4z"/>
 <path d="M5230 3230 l0 -190 185 0 185 0 0 190 0 190 -185 0 -185 0 0 -190z m237 119 c17 -49 16 -121 -3 -147 -18 -26 -50 -28 -100 -7 -34 14 -35 16 -34 67 0 29 -2 68 -6 86 -8 41 5 41 51 1 27 -24 35 -27 35 -14 0 25 20 57 33 52 7 -2 17 -19 24 -38z"/>
 <path d="M5980 3230 l0 -190 200 0 200 0 0 190 0 190 -200 0 -200 0 0 -190z m240 108 c0 -13 -90 -136 -123 -166 -21 -20 -29 -22 -46 -12 -21 11 -20 13 26 71 80 102 143 149 143 107z"/>
 <path d="M6750 3230 l0 -190 190 0 190 0 0 190 0 190 -190 0 -190 0 0 -190z m209 123 c17 -33 23 -146 9 -173 -26 -48 -130 -30 -144 25 -8 31 17 72 51 85 14 5 31 25 39 45 16 39 30 44 45 18z"/>
 <path d="M6885 3231 c-7 -12 12 -24 25 -16 11 7 4 25 -10 25 -5 0 -11 -4 -15 -9z"/>
 <path d="M7520 3230 l0 -190 190 0 190 0 0 190 0 190 -190 0 -190 0 0 -190z m118 85 c7 -14 23 -30 37 -35 32 -12 32 -37 0 -52 -14 -6 -25 -15 -25 -19 0 -11 39 -21 70 -17 17 2 25 -2 28 -16 5 -24 -11 -33 -69 -41 -76 -11 -89 2 -89 85 0 104 23 150 48 95z"/>
 <path d="M8260 3230 l0 -190 180 0 180 0 0 190 0 190 -180 0 -180 0 0 -190z m124 101 c25 -47 56 -49 70 -4 9 28 33 37 45 15 5 -9 12 -49 16 -88 6 -59 4 -74 -10 -88 -21 -21 -45 -5 -45 29 0 27 -22 48 -46 43 -9 -2 -22 -19 -28 -38 -25 -77 -63 -9 -52 93 8 75 25 88 50 38z"/>
 <path d="M9000 3230 l0 -190 200 0 200 0 0 190 0 190 -200 0 -200 0 0 -190z m251 51 c50 -50 69 -76 69 -95 0 -14 -5 -26 -11 -26 -6 0 -37 25 -70 57 -32 31 -61 54 -63 52 -1 -2 -15 -27 -31 -56 -28 -53 -51 -71 -68 -54 -10 10 56 170 76 183 21 13 28 10 98 -61z"/>
 <path d="M9780 3230 l0 -190 195 0 195 0 0 190 0 190 -195 0 -195 0 0 -190z m174 100 c35 0 46 -6 89 -52 63 -67 83 -104 66 -124 -11 -13 -19 -8 -58 30 -26 26 -56 46 -66 46 -11 0 -32 7 -47 14 -31 16 -33 15 -42 -30 -8 -37 -39 -69 -56 -59 -14 9 -10 44 15 128 15 52 19 58 38 53 12 -3 40 -6 61 -6z"/>
 <path d="M10530 3230 l0 -190 195 0 195 0 0 190 0 190 -195 0 -195 0 0 -190z m264 37 c7 -51 6 -62 -11 -85 -16 -22 -29 -28 -69 -30 -31 -2 -56 2 -69 12 -19 13 -19 15 -2 33 9 11 17 26 17 33 0 7 7 22 17 32 15 17 15 18 -4 18 -27 0 -58 24 -49 39 5 8 33 11 84 9 l77 -3 9 -58z"/>
 <path d="M11270 3230 l0 -190 175 0 175 0 0 190 0 190 -175 0 -175 0 0 -190z m260 90 c13 -8 12 -19 -10 -81 -24 -70 -53 -119 -71 -119 -9 0 -111 105 -136 140 -18 26 -7 48 31 59 42 12 167 13 186 1z"/>
 <path d="M11910 3230 l0 -190 210 0 210 0 0 190 0 190 -210 0 -210 0 0 -190z m229 4 c45 -53 81 -100 81 -105 0 -25 -34 -18 -74 14 l-43 36 -34 -35 c-61 -63 -75 -34 -22 47 l24 37 -26 41 c-27 40 -27 61 0 61 8 0 50 -43 94 -96z"/>
 <path d="M10 2515 l0 -185 215 0 215 0 0 185 0 185 -215 0 -215 0 0 -185z m307 130 c13 -14 23 -31 23 -37 0 -6 -18 -28 -40 -50 l-41 -38 36 0 c38 0 59 -25 34 -41 -27 -17 -98 -10 -119 11 -24 24 -16 48 30 82 37 27 38 46 3 54 -38 9 -53 23 -46 41 10 26 92 11 120 -22z"/>
 <path d="M800 2515 l0 -185 175 0 175 0 0 185 0 185 -70 0 -70 0 18 -28 c9 -16 34 -43 54 -61 20 -18 40 -41 43 -52 10 -31 -23 -107 -48 -111 -14 -2 -24 -14 -31 -35 -9 -34 -24 -40 -57 -23 -12 7 -19 21 -19 40 0 21 -8 35 -26 47 -24 15 -54 67 -54 92 0 6 20 33 45 61 25 28 45 55 45 60 0 6 -39 10 -90 10 l-90 0 0 -185z"/>
 <path d="M1500 2515 l0 -185 190 0 190 0 0 185 0 185 -190 0 -190 0 0 -185z m171 143 c50 -42 135 -180 123 -200 -13 -21 -38 -2 -92 70 -32 42 -63 86 -69 97 -12 23 -7 45 11 45 7 0 19 -6 27 -12z"/>
 <path d="M2260 2515 l0 -185 195 0 195 0 0 185 0 185 -195 0 -195 0 0 -185z m289 166 c11 -7 9 -23 -14 -90 -27 -81 -48 -115 -68 -108 -6 2 -42 38 -80 80 -83 91 -81 106 12 108 31 1 67 5 81 9 34 11 53 11 69 1z"/>
 <path d="M2437 2617 c-16 -11 -16 -14 -2 -35 9 -12 20 -22 24 -22 8 0 31 44 31 60 0 14 -33 12 -53 -3z"/>
 <path d="M3020 2515 l0 -185 210 0 210 0 0 185 0 185 -210 0 -210 0 0 -185z m287 131 c12 -11 10 -163 -2 -175 -5 -5 -54 -12 -109 -16 l-98 -8 7 89 c10 136 2 127 106 122 49 -2 92 -8 96 -12z"/>
 <path d="M3780 2515 l0 -185 185 0 185 0 0 185 0 185 -185 0 -185 0 0 -185z m207 145 c41 -16 53 -36 42 -73 -5 -18 -7 -44 -4 -58 7 -33 -13 -55 -62 -68 -48 -14 -82 -4 -94 26 -10 28 -12 166 -2 176 10 11 88 8 120 -3z"/>
 <path d="M3920 2611 c0 -12 29 -23 41 -15 18 10 9 24 -16 24 -14 0 -25 -4 -25 -9z"/>
 <path d="M3927 2524 c-4 -4 -4 -10 -1 -15 6 -10 34 0 34 12 0 10 -24 12 -33 3z"/>
 <path d="M4490 2515 l0 -185 180 0 180 0 0 185 0 185 -180 0 -180 0 0 -185z m175 115 c14 -22 38 -46 55 -55 57 -29 62 -76 13 -115 -34 -27 -98 -27 -113 -1 -11 22 -14 194 -3 204 13 13 23 6 48 -33z"/>
 <path d="M4670 2510 c0 -15 5 -20 18 -18 9 2 17 10 17 18 0 8 -8 16 -17 18 -13 2 -18 -3 -18 -18z"/>
 <path d="M5230 2515 l0 -185 185 0 185 0 0 185 0 185 -185 0 -185 0 0 -185z m286 81 c19 -19 34 -44 34 -56 0 -12 -15 -37 -34 -56 -26 -26 -42 -34 -70 -34 -88 0 -131 129 -56 167 46 23 89 16 126 -21z"/>
 <path d="M5412 2568 c-27 -27 0 -58 52 -58 19 0 26 5 26 19 0 33 -56 61 -78 39z"/>
 <path d="M5980 2515 l0 -185 200 0 200 0 0 185 0 185 -200 0 -200 0 0 -185z m157 74 c14 -41 24 -40 64 6 50 57 78 40 44 -25 -14 -27 -14 -33 0 -61 15 -28 15 -33 1 -54 -20 -31 -84 -49 -120 -35 -15 5 -31 22 -37 37 -11 29 -7 142 6 162 11 20 29 7 42 -30z"/>
 <path d="M6140 2480 c0 -5 11 -10 25 -10 14 0 25 5 25 10 0 6 -11 10 -25 10 -14 0 -25 -4 -25 -10z"/>
 <path d="M6750 2515 l0 -185 190 0 190 0 0 185 0 185 -190 0 -190 0 0 -185z m239 88 c0 -21 -10 -69 -22 -108 -19 -57 -28 -71 -50 -79 -22 -8 -31 -6 -52 14 -31 29 -85 135 -85 167 0 28 21 30 45 3 29 -32 86 -27 113 10 32 42 52 39 51 -7z"/>
 <path d="M7520 2515 l0 -185 190 0 190 0 0 185 0 185 -190 0 -190 0 0 -185z m261 84 c10 -16 10 -92 0 -129 -12 -44 -44 -32 -61 22 -26 82 -60 91 -60 15 0 -61 -10 -87 -31 -87 -26 0 -39 31 -39 95 0 47 4 60 26 82 23 23 31 25 90 21 43 -3 69 -9 75 -19z"/>
 <path d="M8260 2515 l0 -185 180 0 180 0 0 185 0 185 -180 0 -180 0 0 -185z m256 122 c4 -4 10 -47 12 -96 4 -84 3 -89 -19 -105 -32 -22 -171 -23 -193 0 -24 24 -23 189 2 204 19 12 186 10 198 -3z"/>
 <path d="M8350 2511 c0 -13 26 -32 33 -24 8 7 -11 33 -24 33 -5 0 -9 -4 -9 -9z"/>
 <path d="M9000 2515 l0 -185 200 0 200 0 0 185 0 185 -200 0 -200 0 0 -185z m269 122 c18 -22 32 -150 18 -164 -7 -6 -48 -13 -92 -15 -74 -3 -80 -2 -80 17 0 16 10 22 55 31 61 11 71 26 25 34 -36 6 -40 31 -8 45 13 5 27 22 32 37 11 30 32 36 50 15z"/>
 <path d="M9780 2515 l0 -185 195 0 195 0 0 185 0 185 -195 0 -195 0 0 -185z m132 128 c10 -9 18 -26 18 -37 0 -18 5 -15 36 18 34 37 37 39 50 22 11 -16 11 -23 -2 -48 -14 -26 -14 -32 -1 -46 25 -28 31 -67 12 -85 -16 -16 -76 -37 -107 -37 -26 0 -39 33 -47 115 -6 70 0 115 15 115 4 0 16 -7 26 -17z"/>
 <path d="M9940 2500 c0 -5 9 -10 20 -10 11 0 20 5 20 10 0 6 -9 10 -20 10 -11 0 -20 -4 -20 -10z"/>
 <path d="M10530 2515 l0 -185 195 0 195 0 0 185 0 185 -195 0 -195 0 0 -185z m204 89 c11 -11 16 -35 16 -83 0 -110 -43 -141 -52 -37 -6 66 -20 86 -64 86 -18 0 -36 5 -40 12 -21 33 108 54 140 22z"/>
 <path d="M11270 2515 l0 -185 175 0 175 0 0 185 0 185 -175 0 -175 0 0 -185z m98 121 c15 -8 44 -17 64 -21 47 -7 78 -45 78 -94 -1 -111 -145 -123 -180 -15 -11 33 -6 144 7 144 3 0 17 -6 31 -14z"/>
 <path d="M11434 2526 c-3 -9 -12 -16 -20 -16 -16 0 -19 -16 -4 -25 12 -7 50 16 50 32 0 19 -20 26 -26 9z"/>
 <path d="M11910 2515 l0 -185 210 0 210 0 0 185 0 185 -210 0 -210 0 0 -185z m245 112 c17 -13 17 -15 -6 -30 -13 -10 -31 -17 -41 -17 -24 0 -23 -17 2 -32 24 -15 26 -36 5 -44 -28 -11 -17 -34 18 -34 43 0 66 -15 50 -31 -19 -19 -116 -24 -130 -8 -6 8 -14 55 -18 106 l-7 92 48 4 c27 2 52 4 55 5 3 1 13 -4 24 -11z"/>
 <path d="M10 1740 l0 -190 215 0 215 0 0 190 0 190 -215 0 -215 0 0 -190z m146 141 c3 -14 7 -30 8 -35 1 -4 18 -14 39 -21 l37 -13 0 32 c0 41 24 76 40 60 16 -16 39 -143 33 -177 -8 -42 -29 -44 -74 -8 l-40 32 -31 -26 c-17 -14 -36 -24 -42 -22 -11 4 -22 178 -12 204 8 20 36 4 42 -26z"/>
 <path d="M800 1740 l0 -190 175 0 175 0 0 190 0 190 -175 0 -175 0 0 -190z m182 140 c10 -14 21 -43 25 -65 3 -22 15 -47 26 -55 18 -15 18 -17 2 -33 -11 -12 -33 -17 -71 -17 -64 0 -79 18 -45 54 33 35 22 76 -20 76 -31 0 -33 22 -4 47 33 29 62 27 87 -7z"/>
 <path d="M1500 1740 l0 -190 190 0 190 0 0 190 0 190 -142 0 c-99 -1 -138 -4 -126 -10 22 -14 138 -168 138 -185 0 -22 -28 -25 -54 -4 -21 17 -28 18 -45 7 -27 -17 -37 -3 -24 32 10 26 7 35 -23 82 -19 29 -32 58 -29 65 3 9 -7 13 -35 13 l-40 0 0 -190z"/>
 <path d="M2260 1740 l0 -190 195 0 195 0 0 190 0 190 -195 0 -195 0 0 -190z m310 145 c0 -45 -35 -139 -65 -173 -19 -22 -27 -25 -42 -16 -21 12 -75 90 -106 152 -18 37 -19 44 -7 52 19 12 33 -1 81 -72 22 -32 44 -58 49 -58 4 0 16 24 25 53 31 95 65 128 65 62z"/>
 <path d="M3020 1740 l0 -190 210 0 210 0 0 190 0 190 -210 0 -210 0 0 -190z m264 150 c5 -5 9 -45 10 -90 1 -62 -3 -83 -14 -90 -21 -13 -35 5 -54 71 -19 68 -42 92 -61 65 -7 -10 -19 -40 -25 -67 -16 -65 -40 -67 -40 -4 0 54 21 108 47 124 20 12 122 5 137 -9z"/>
 <path d="M3780 1740 l0 -190 185 0 185 0 0 190 0 190 -185 0 -185 0 0 -190z m171 149 c6 -10 1 -19 -16 -32 -33 -25 -35 -78 -2 -100 31 -22 12 -37 -55 -44 -64 -6 -85 9 -50 38 15 11 22 28 22 51 0 38 -8 52 -32 61 -10 3 -18 13 -18 21 0 19 24 25 88 22 33 -2 57 -8 63 -17z"/>
 <path d="M4490 1740 l0 -190 180 0 180 0 0 190 0 190 -180 0 -180 0 0 -190z m98 155 c16 -12 27 -13 40 -6 33 17 42 -6 42 -106 0 -75 -3 -93 -15 -93 -8 0 -17 11 -21 25 -7 30 -6 30 -46 5 -57 -34 -64 -19 -22 42 l27 38 -27 34 c-44 58 -30 97 22 61z"/>
 <path d="M5230 1740 l0 -190 185 0 185 0 0 190 0 190 -185 0 -185 0 0 -190z m247 127 c23 -22 -34 -203 -61 -194 -15 5 -80 91 -112 150 -22 40 -24 51 -13 59 19 12 171 0 186 -15z"/>
 <path d="M5980 1740 l0 -190 200 0 200 0 0 190 0 190 -200 0 -200 0 0 -190z m136 125 c10 -8 30 -15 42 -15 38 0 88 -29 101 -56 17 -39 14 -89 -9 -109 -10 -9 -39 -20 -64 -22 -40 -5 -48 -2 -76 25 -28 29 -30 35 -30 111 0 45 4 81 8 81 5 0 17 -7 28 -15z"/>
 <path d="M6194 1766 c-7 -20 2 -46 16 -46 13 0 13 47 0 55 -6 3 -13 -1 -16 -9z"/>
 <path d="M6750 1740 l0 -190 190 0 190 0 0 190 0 190 -190 0 -190 0 0 -190z m196 125 c4 -8 9 -39 13 -67 6 -52 7 -53 44 -59 49 -8 65 -23 47 -45 -12 -14 -27 -15 -100 -9 -130 10 -148 20 -90 53 29 16 35 28 54 115 7 30 23 36 32 12z"/>
 <path d="M7520 1740 l0 -190 190 0 190 0 0 190 0 190 -190 0 -190 0 0 -190z m257 119 l28 -11 -24 -19 c-13 -10 -31 -19 -41 -19 -15 0 -18 -11 -22 -66 -6 -103 -48 -109 -62 -7 -7 52 -20 73 -47 73 -28 0 -52 29 -38 46 14 17 163 19 206 3z"/>
 <path d="M8260 1740 l0 -190 180 0 180 0 0 190 0 190 -180 0 -180 0 0 -190z m140 58 c0 -25 9 -23 45 12 27 26 34 29 44 16 17 -20 25 -106 12 -138 -14 -37 -40 -36 -47 2 -4 17 -9 30 -12 30 -3 0 -17 -14 -32 -31 -21 -26 -30 -30 -49 -24 -22 7 -23 11 -19 81 3 40 11 81 18 90 13 14 15 14 27 -2 7 -10 13 -26 13 -36z"/>
 <path d="M9000 1740 l0 -190 200 0 200 0 0 190 0 190 -200 0 -200 0 0 -190z m284 110 c20 -7 26 -17 26 -38 0 -73 -32 -110 -106 -126 -37 -8 -59 9 -81 62 -17 42 -11 64 29 98 33 27 69 28 132 4z"/>
 <path d="M9173 1805 c-9 -25 4 -29 17 -6 7 15 7 21 0 21 -6 0 -13 -7 -17 -15z"/>
 <path d="M9200 1750 c-12 -8 -11 -10 8 -10 12 0 22 5 22 10 0 13 -11 13 -30 0z"/>
 <path d="M9780 1740 l0 -190 195 0 195 0 0 190 0 190 -195 0 -195 0 0 -190z m197 45 c57 -75 72 -110 54 -128 -8 -8 -20 -2 -46 23 l-35 34 -28 -27 c-52 -50 -69 -25 -31 43 21 38 21 49 -3 81 -15 21 -3 51 19 47 9 -2 41 -34 70 -73z"/>
 <path d="M10530 1740 l0 -190 195 0 195 0 0 190 0 190 -195 0 -195 0 0 -190z m210 94 c71 -29 91 -101 43 -154 -32 -36 -108 -54 -124 -29 -10 16 -12 159 -3 183 8 20 33 20 84 0z"/>
 <path d="M10705 1771 c-9 -15 7 -71 21 -71 19 0 27 18 20 44 -6 25 -32 41 -41 27z"/>
 <path d="M11270 1740 l0 -190 175 0 175 0 0 190 0 190 -175 0 -175 0 0 -190z m224 69 c44 -38 50 -57 36 -109 -21 -76 -95 -91 -159 -31 -52 49 -40 129 22 156 47 21 63 18 101 -16z"/>
 <path d="M11910 1740 l0 -190 210 0 210 0 0 190 0 190 -210 0 -210 0 0 -190z m241 55 c19 -13 44 -29 57 -34 12 -6 22 -19 22 -30 0 -12 -9 -22 -22 -26 -13 -4 -44 -20 -69 -36 -25 -16 -56 -29 -69 -29 -22 0 -130 74 -130 89 0 10 60 66 85 79 35 20 89 14 126 -13z"/>
 <path d="M10 970 l0 -170 215 0 215 0 0 170 0 170 -215 0 -215 0 0 -170z m213 129 c21 -16 31 -18 46 -10 11 6 27 8 35 5 18 -7 96 -120 96 -140 0 -29 -24 -24 -63 14 -34 32 -51 41 -94 46 l-52 7 -25 -50 c-26 -51 -42 -68 -54 -57 -14 15 56 206 76 206 5 0 21 -9 35 -21z"/>
 <path d="M800 970 l0 -170 175 0 175 0 0 170 0 170 -175 0 -175 0 0 -170z m188 70 c56 -78 62 -97 35 -107 -12 -5 -27 6 -53 35 -19 23 -40 42 -46 42 -6 0 -23 -13 -39 -30 -52 -54 -60 -28 -19 60 30 64 43 82 58 77 6 -2 35 -37 64 -77z"/>
 <path d="M1500 970 l0 -170 190 0 190 0 0 170 0 170 -190 0 -190 0 0 -170z m207 120 c6 -13 22 -31 34 -40 l21 -17 -23 -44 c-12 -24 -26 -51 -29 -59 -11 -24 -22 -18 -35 19 -8 26 -20 38 -45 46 -46 16 -48 31 -6 49 27 11 36 21 36 39 0 44 26 48 47 7z"/>
 <path d="M2260 970 l0 -170 195 0 195 0 0 170 0 170 -195 0 -195 0 0 -170z m245 136 c15 -11 19 -27 19 -99 1 -47 -3 -89 -7 -93 -12 -12 -140 -16 -156 -6 -19 13 -6 29 29 36 17 3 44 9 61 12 39 8 32 28 -12 34 -43 6 -45 31 -4 44 17 6 32 12 35 14 12 9 -37 32 -66 32 -34 0 -50 12 -39 30 9 15 118 12 140 -4z"/>
 <path d="M3020 970 l0 -170 210 0 210 0 0 170 0 170 -210 0 -210 0 0 -170z m251 124 c43 -39 8 -94 -60 -94 -33 0 -34 -1 -17 -19 10 -11 30 -21 45 -23 34 -4 34 -30 -2 -42 -32 -12 -68 10 -104 64 -31 45 -29 66 12 107 31 31 40 35 72 30 19 -4 44 -14 54 -23z"/>
 <path d="M3167 1063 c-4 -3 -7 -12 -7 -18 0 -9 8 -9 34 -1 19 6 32 14 30 18 -6 10 -48 11 -57 1z"/>
 <path d="M3780 970 l0 -170 185 0 185 0 0 170 0 170 -185 0 -185 0 0 -170z m192 53 c73 -90 83 -110 66 -130 -11 -14 -17 -10 -50 28 l-38 44 -31 -38 c-51 -62 -66 -42 -28 37 l22 44 -22 30 c-21 30 -26 53 -15 65 12 12 41 -12 96 -80z"/>
 <path d="M4490 970 l0 -170 180 0 180 0 0 170 0 170 -180 0 -180 0 0 -170z m140 86 c5 -14 18 -30 30 -36 26 -14 26 -40 0 -47 -27 -7 -15 -23 18 -23 15 0 34 -5 42 -10 27 -18 -16 -40 -74 -37 l-51 2 -7 75 c-4 41 -5 81 -3 88 7 21 35 13 45 -12z"/>
 <path d="M5230 970 l0 -170 185 0 185 0 0 170 0 170 -185 0 -185 0 0 -170z m270 101 c33 -24 51 -77 38 -113 -21 -59 -86 -74 -157 -38 -42 21 -51 36 -51 84 0 41 19 67 61 83 40 14 74 9 109 -16z"/>
 <path d="M5385 1029 c-12 -19 5 -59 30 -71 19 -9 29 -7 50 6 30 20 32 37 7 59 -21 19 -77 23 -87 6z m80 -18 c3 -5 -2 -17 -11 -26 -22 -21 -44 -4 -24 20 14 17 26 19 35 6z"/>
 <path d="M5980 970 l0 -170 200 0 200 0 0 170 0 170 -200 0 -200 0 0 -170z m299 104 c9 -9 -90 -195 -107 -202 -10 -3 -21 3 -30 17 -9 12 -39 55 -69 94 -29 40 -53 77 -53 84 0 19 240 26 259 7z"/>
 <path d="M6140 1030 c-13 -8 -13 -12 0 -36 8 -15 20 -29 27 -31 11 -4 43 45 43 67 0 13 -50 13 -70 0z"/>
 <path d="M6750 970 l0 -170 190 0 190 0 0 170 0 170 -190 0 -190 0 0 -170z m118 88 c7 -7 12 -20 12 -30 0 -14 8 -18 40 -18 32 0 40 4 40 19 0 10 7 25 16 32 14 11 18 10 29 -5 17 -22 30 -135 20 -167 -17 -52 -55 -40 -55 17 0 28 -5 36 -27 45 -37 14 -56 1 -66 -47 -10 -52 -24 -64 -43 -40 -26 35 -14 206 14 206 4 0 13 -5 20 -12z"/>
 <path d="M7520 970 l0 -170 190 0 190 0 0 170 0 170 -190 0 -190 0 0 -170z m152 55 c6 -22 20 -35 51 -50 34 -16 43 -26 45 -51 2 -25 -3 -37 -28 -58 -59 -49 -103 -47 -114 4 -8 41 -8 153 0 175 10 25 37 13 46 -20z"/>
 <path d="M7686 923 c-9 -9 -7 -33 3 -33 12 0 22 28 12 34 -5 3 -11 3 -15 -1z"/>
 <path d="M8260 970 l0 -170 180 0 180 0 0 170 0 170 -180 0 -180 0 0 -170z m263 77 c8 -12 1 -156 -8 -165 -2 -3 -51 -5 -107 -6 l-103 -1 2 79 c4 113 13 120 123 111 47 -3 88 -12 93 -18z"/>
 <path d="M8357 1003 c-4 -3 -7 -21 -7 -40 0 -26 4 -33 19 -33 12 0 21 9 25 25 6 25 45 37 47 15 1 -5 2 -15 3 -22 0 -6 7 -13 14 -15 8 -3 12 8 12 36 l0 41 -53 0 c-30 0 -57 -3 -60 -7z"/>
 <path d="M9000 970 l0 -170 200 0 200 0 0 170 0 170 -200 0 -200 0 0 -170z m252 87 c0 -4 -3 -28 -7 -54 -5 -37 -3 -51 13 -72 36 -49 -1 -70 -53 -29 l-28 22 -15 -22 c-19 -28 -38 -28 -46 1 -9 33 -7 130 3 146 13 20 39 6 47 -24 6 -23 24 -36 24 -16 0 28 61 75 62 48z"/>
 <path d="M9780 970 l0 -170 195 0 195 0 0 170 0 170 -195 0 -195 0 0 -170z m254 90 c33 -12 38 -70 7 -70 -11 0 -23 5 -26 10 -13 22 -36 10 -33 -16 2 -20 11 -29 38 -38 19 -6 35 -18 35 -26 0 -12 -17 -16 -82 -18 -90 -3 -133 9 -113 33 6 7 22 16 36 19 20 5 25 12 22 33 -3 25 -14 36 -52 47 -15 5 -16 9 -6 21 15 18 133 21 174 5z"/>
 <path d="M10530 970 l0 -170 195 0 195 0 0 170 0 170 -195 0 -195 0 0 -170z m125 96 c11 -7 37 -16 59 -19 50 -8 85 -32 101 -70 17 -40 2 -83 -35 -102 -16 -8 -35 -22 -44 -31 -15 -14 -17 -14 -22 0 -3 9 -11 16 -18 16 -6 0 -22 9 -34 18 -18 14 -27 37 -38 96 -20 102 -13 123 31 92z"/>
 <path d="M10732 963 c0 -10 -3 -26 -7 -35 -9 -22 4 -23 31 -4 15 12 17 19 8 32 -15 25 -33 29 -32 7z"/>
 <path d="M11270 970 l0 -170 175 0 175 0 0 170 0 170 -175 0 -175 0 0 -170z m238 -62 c36 -72 7 -91 -46 -31 l-32 38 -29 -34 c-20 -22 -35 -32 -46 -28 -13 6 -12 13 11 59 26 50 26 54 10 81 -17 31 -21 59 -8 71 10 11 116 -106 140 -156z"/>
 <path d="M11910 970 l0 -170 210 0 210 0 0 170 0 170 -210 0 -210 0 0 -170z m248 75 c13 -13 13 -149 0 -175 -12 -23 -19 -25 -78 -25 -53 0 -65 3 -68 17 -3 13 8 20 42 29 25 6 44 15 41 19 -3 5 -13 6 -23 3 -21 -5 -47 21 -37 36 3 6 20 14 37 19 42 11 49 32 9 32 -61 0 -107 36 -68 54 16 7 136 0 145 -9z"/>
 <path d="M0 190 l0 -190 3270 0 c2173 0 3270 3 3270 10 0 6 -35 10 -85 10 l-85 0 0 180 0 180 -200 0 -200 0 0 -180 0 -180 -190 0 -190 0 0 180 0 180 -185 0 -185 0 0 -180 0 -180 -190 0 -190 0 0 180 0 180 -180 0 -180 0 0 -180 0 -180 -170 0 -170 0 0 180 0 180 -185 0 -185 0 0 -180 0 -180 -170 0 -170 0 0 180 0 180 -210 0 -210 0 0 -180 0 -180 -185 0 -185 0 0 180 0 180 -195 0 -195 0 0 -180 0 -180 -190 0 -190 0 0 180 0 180 -190 0 -190 0 0 -180 0 -180 -175 0 -175 0 0 180 0 180 -175 0 -175 0 0 -180 0 -180 -180 0 -180 0 0 180 0 180 -215 0 -215 0 0 -190z m1080 71 c0 -68 -4 -102 -12 -107 -7 -4 -49 -10 -94 -12 l-81 -4 -15 38 c-22 56 -30 127 -19 157 10 27 11 27 116 27 l105 0 0 -99z m567 91 c6 -4 15 -20 18 -35 5 -18 18 -33 34 -39 77 -31 92 -49 71 -87 -14 -27 -79 -46 -116 -34 -28 9 -29 12 -35 94 -8 103 -3 121 28 101z m-1343 -8 c21 -8 20 -36 -4 -113 -24 -76 -35 -91 -64 -91 -16 0 -33 20 -67 78 -59 99 -65 119 -42 125 27 7 159 8 177 1z m2105 -4 c25 -13 110 -140 113 -169 6 -47 -21 -31 -79 46 -75 99 -76 101 -69 118 6 18 11 18 35 5z m3050 -11 c17 -6 32 -16 32 -22 3 -25 -2 -133 -7 -149 -6 -20 -82 -51 -115 -46 -20 2 -25 11 -32 53 -4 28 -12 73 -17 100 -7 42 -6 52 8 63 20 15 88 16 131 1z m-2215 -9 c31 -11 25 -37 -10 -46 -31 -8 -30 -19 1 -40 34 -22 70 -73 59 -84 -16 -16 -142 -24 -159 -10 -20 17 -2 40 31 40 13 0 24 3 24 6 0 3 -18 28 -40 54 -22 26 -40 52 -40 57 0 31 78 45 134 23z m628 -27 c19 -21 54 -62 77 -92 36 -46 40 -56 27 -63 -21 -12 -33 -4 -98 67 -60 66 -82 100 -73 115 11 18 31 10 67 -27z m864 -29 c16 -57 16 -119 -1 -119 -5 0 -19 16 -30 34 -26 44 -70 91 -85 91 -8 0 -10 -20 -8 -62 2 -51 0 -63 -12 -63 -17 0 -35 35 -44 88 -6 31 -3 41 16 60 19 18 35 23 86 23 l62 1 16 -53z m1525 25 c17 -33 7 -148 -15 -165 -23 -16 -134 -28 -182 -19 l-37 6 7 91 c3 49 8 94 12 99 3 5 50 9 104 9 91 0 100 -2 111 -21z"/>
 <path d="M900 237 c0 -18 5 -38 12 -45 16 -16 68 -15 68 1 0 13 -60 77 -73 77 -4 0 -7 -15 -7 -33z"/>
 <path d="M1680 210 c0 -5 7 -10 15 -10 8 0 15 5 15 10 0 6 -7 10 -15 10 -8 0 -15 -4 -15 -10z"/>
 <path d="M190 283 c0 -10 11 -31 24 -47 l23 -30 12 23 c21 38 10 66 -26 69 -26 3 -33 0 -33 -15z"/>
 <path d="M5380 275 c0 -10 10 -15 30 -15 32 0 40 14 14 24 -27 10 -44 7 -44 -9z"/>
 <path d="M5390 180 c0 -5 9 -10 20 -10 11 0 20 5 20 10 0 6 -9 10 -20 10 -11 0 -20 -4 -20 -10z"/>
 <path d="M6080 195 c0 -33 2 -35 35 -35 41 0 46 17 12 48 -33 31 -47 28 -47 -13z"/>
 <path d="M6740 190 l0 -190 190 0 190 0 0 190 0 190 -190 0 -190 0 0 -190z m173 105 c4 -8 9 -47 12 -87 5 -56 3 -78 -8 -92 -15 -20 -37 -14 -37 10 0 12 -3 12 -24 -1 -29 -19 -40 -7 -31 33 4 21 -2 39 -29 77 -19 26 -33 52 -30 57 10 16 41 8 64 -17 29 -31 40 -32 40 -2 0 37 32 53 43 22z"/>
 <path d="M7510 190 l0 -190 190 0 190 0 0 190 0 190 -190 0 -190 0 0 -190z m193 59 c74 -38 89 -99 38 -150 -48 -47 -116 -38 -146 21 -31 59 -15 105 45 129 33 13 38 13 63 0z"/>
 <path d="M7630 177 c0 -13 11 -34 24 -46 20 -19 28 -21 45 -12 42 23 12 81 -42 81 -22 0 -27 -5 -27 -23z"/>
 <path d="M8250 200 l0 -180 180 0 180 0 0 180 0 180 -180 0 -180 0 0 -180z m270 62 c0 -9 -7 -25 -15 -36 -12 -16 -11 -22 7 -46 16 -22 18 -32 9 -48 -26 -49 -104 -70 -132 -36 -18 22 -19 175 -2 181 7 3 18 -10 25 -27 l13 -32 38 37 c37 36 57 39 57 7z"/>
 <path d="M8430 140 c0 -5 7 -10 15 -10 8 0 15 5 15 10 0 6 -7 10 -15 10 -8 0 -15 -4 -15 -10z"/>
 <path d="M8990 195 l0 -185 200 0 200 0 0 185 0 185 -200 0 -200 0 0 -185z m135 57 c36 -49 50 -52 64 -12 11 33 36 49 52 33 7 -7 3 -28 -10 -61 l-21 -52 34 0 c18 0 39 -7 46 -15 19 -23 -26 -35 -126 -35 -87 0 -100 8 -62 35 l23 15 -28 49 c-29 52 -36 96 -14 89 6 -3 26 -23 42 -46z"/>
 <path d="M9770 195 l0 -185 195 0 195 0 0 185 0 185 -195 0 -195 0 0 -185z m230 85 c6 -11 12 -60 13 -108 l2 -87 -42 -3 c-49 -4 -99 19 -108 48 -9 29 18 67 60 84 29 12 35 20 35 44 0 45 21 57 40 22z"/>
 <path d="M9914 158 c-4 -6 1 -17 11 -25 32 -23 43 -15 29 21 -7 19 -30 21 -40 4z"/>
 <path d="M10520 195 l0 -185 195 0 195 0 0 185 0 185 -195 0 -195 0 0 -185z m115 74 l36 -32 28 27 c15 14 30 26 34 26 12 0 7 -40 -9 -71 -15 -30 -15 -31 22 -72 37 -40 37 -41 16 -50 -18 -8 -27 -6 -45 11 -29 28 -35 27 -59 -3 -31 -40 -41 -31 -33 30 6 49 4 58 -19 88 -26 34 -32 57 -19 70 9 10 9 10 48 -24z"/>
 <path d="M11260 190 l0 -190 175 0 175 0 0 190 0 190 -175 0 -175 0 0 -190z m107 38 l37 -51 19 42 c36 83 80 65 48 -20 -25 -65 -25 -59 -3 -59 10 0 27 -7 38 -15 18 -14 18 -16 1 -29 -14 -11 -39 -13 -100 -9 -45 3 -86 9 -91 14 -6 5 -1 18 11 31 21 23 21 23 3 58 -21 38 -26 90 -10 90 6 0 27 -23 47 -52z"/>
 <path d="M11900 190 l0 -190 210 0 210 0 0 190 0 190 -210 0 -210 0 0 -190z m259 64 c21 -15 23 -22 18 -74 -2 -31 -11 -67 -18 -79 -13 -21 -103 -56 -119 -46 -4 2 -10 39 -14 81 -4 42 -10 90 -13 106 l-5 28 64 0 c43 0 71 -5 87 -16z"/>
 <path d="M12077 214 c-11 -12 3 -24 29 -24 16 0 24 5 22 13 -5 13 -40 22 -51 11z"/>
 <path d="M12080 120 c0 -5 7 -10 15 -10 8 0 15 5 15 10 0 6 -7 10 -15 10 -8 0 -15 -4 -15 -10z"/>
 </g>

</svg>