<!DOCTYPE svg PUBLIC "-//W3C//DTD SVG 20010904//EN" "http://www.w3.org/TR/2001/REC-SVG-20010904/DTD/svg10.dtd">
<svg version="1.0" xmlns="http://www.w3.org/2000/svg" width="654px" height="302px" viewBox="0 0 6540 3020" preserveAspectRatio="xMidYMid meet">
<g id="layer101" fill="#010101" stroke="none">
 <path d="M0 1510 l0 -1510 3270 0 3270 0 0 1510 0 1510 -3270 0 -3270 0 0 -1510z"/>
 </g>
<g id="layer102" fill="#d0d0d0" stroke="none">
 <path d="M0 1510 l0 -1510 3270 0 3270 0 0 1510 0 1510 -3270 0 -3270 0 0 -1510z m317 1444 c8 -22 -17 -40 -66 -48 l-39 -6 9 -42 c13 -58 -8 -132 -38 -136 -23 -3 -33 16 -29 58 1 14 -3 50 -10 80 -15 77 -7 94 47 101 87 12 119 10 126 -7z m598 -2 c6 -4 39 -45 74 -92 69 -92 83 -130 46 -130 -31 0 -169 181 -160 210 7 21 22 25 40 12z m1263 -7 c55 -29 56 -31 58 -101 2 -78 -11 -106 -61 -130 -28 -13 -34 -22 -37 -55 -3 -30 0 -39 12 -39 9 0 25 -6 35 -14 16 -12 17 -16 6 -30 -8 -9 -28 -16 -47 -16 -41 0 -46 -22 -11 -51 l22 -19 -23 -19 c-26 -23 -19 -30 27 -29 41 1 59 -15 41 -37 -9 -10 -31 -15 -75 -15 -61 0 -64 1 -69 28 -8 38 -11 180 -4 187 3 4 19 7 34 9 27 3 28 5 26 47 -2 28 -10 50 -22 59 -25 21 -31 46 -32 134 0 47 4 82 12 91 16 19 73 19 108 0z m-1524 -8 c24 -18 27 -144 3 -180 -14 -22 -20 -24 -53 -17 -39 9 -80 42 -90 72 -9 29 14 85 47 113 33 27 66 32 93 12z m698 -28 c2 -14 16 -25 41 -34 43 -15 87 -51 87 -72 0 -7 -12 -27 -28 -44 -23 -26 -36 -31 -88 -36 l-61 -6 -7 54 c-4 30 -13 66 -20 79 -13 26 -8 44 23 82 17 22 48 8 53 -23z m496 29 c5 -7 13 -49 17 -94 9 -108 4 -113 -112 -112 -121 1 -123 3 -123 92 0 59 4 78 21 100 19 24 26 26 104 26 54 0 86 -4 93 -12z m1418 -18 c32 0 49 -7 73 -29 39 -37 41 -78 5 -120 -21 -26 -33 -31 -68 -31 -35 0 -48 5 -71 32 -19 21 -30 45 -31 68 -1 19 -5 48 -9 64 -10 35 10 51 39 30 11 -8 39 -14 62 -14z m-665 3 c8 -9 13 -18 11 -20 -3 -3 6 -81 14 -121 12 -60 -113 -102 -192 -65 l-39 18 -3 75 c-5 126 -5 126 124 129 56 1 75 -3 85 -16z m1117 -5 c2 -12 -5 -19 -22 -23 -14 -3 -38 -7 -52 -10 -34 -7 -26 -28 15 -36 17 -4 35 -9 38 -13 10 -9 -18 -36 -38 -36 -10 0 -21 -4 -24 -10 -4 -6 13 -10 45 -10 48 0 51 -2 48 -22 -2 -15 -11 -24 -25 -26 -13 -2 -23 -8 -23 -13 0 -13 -44 -11 -74 3 -17 7 -27 21 -30 42 -25 168 -21 175 89 172 38 -1 50 -5 53 -18z m-860 -13 c26 -22 31 -23 42 -10 7 8 23 15 36 15 27 0 32 -27 12 -60 -11 -17 -8 -24 17 -50 27 -28 28 -31 12 -47 -15 -15 -19 -15 -51 2 l-35 19 -30 -28 c-43 -41 -72 -10 -36 38 21 27 19 44 -9 77 -15 18 -22 36 -19 49 7 27 25 25 61 -5z m2710 -8 c4 -35 18 -34 37 3 27 52 67 33 45 -21 -10 -24 -10 -33 4 -54 9 -13 16 -32 16 -42 0 -22 -39 -63 -61 -63 -10 0 -20 -4 -24 -9 -3 -6 -16 -6 -34 0 -28 10 -29 12 -33 97 -3 48 -1 95 4 105 14 27 42 17 46 -16z m357 -4 l7 -38 27 33 c15 17 33 32 40 32 20 0 23 -27 5 -55 -16 -25 -16 -27 5 -46 36 -33 23 -77 -32 -106 -28 -14 -94 -20 -105 -8 -6 6 -2 207 4 217 3 4 13 8 23 8 14 0 21 -10 26 -37z m318 4 l28 -19 6 21 c8 30 45 24 54 -9 14 -49 10 -177 -6 -190 -21 -17 -32 -5 -40 41 l-7 41 -32 -31 c-35 -34 -51 -39 -60 -16 -3 9 8 30 26 51 l32 37 -37 31 c-37 31 -48 60 -24 69 13 5 20 2 60 -26z m-1438 8 c28 -12 40 -13 50 -5 24 20 32 3 40 -76 5 -59 4 -79 -7 -85 -23 -15 -28 -11 -52 44 -27 61 -50 87 -76 87 -17 0 -19 -7 -17 -67 2 -62 0 -68 -19 -71 -18 -3 -22 4 -27 35 -13 78 -9 110 19 132 32 25 41 26 89 6z m326 -27 c22 -24 48 -53 56 -65 21 -31 31 -21 39 37 7 56 26 79 48 61 17 -14 6 -91 -23 -156 -26 -59 -50 -60 -91 -2 -38 53 -56 75 -88 109 -26 28 -25 58 2 58 9 0 34 -19 57 -42z m-1142 2 c4 -30 15 -38 45 -33 13 3 27 16 33 34 6 16 15 29 20 29 26 -1 36 -23 41 -93 4 -70 3 -75 -17 -82 -29 -9 -41 1 -41 36 0 27 -3 29 -35 29 -33 0 -35 -2 -35 -34 0 -40 -24 -66 -43 -47 -11 11 -28 167 -19 184 9 19 47 1 51 -23z m501 -16 c16 -49 15 -103 -3 -121 -12 -12 -19 -13 -38 -2 -13 7 -29 19 -35 28 -10 13 -15 11 -39 -17 -15 -18 -36 -32 -47 -32 -16 0 -19 5 -13 28 3 16 1 49 -4 73 -8 34 -7 47 4 58 18 18 45 7 45 -19 0 -12 7 -20 18 -21 9 0 27 -2 40 -5 19 -3 22 0 22 31 0 28 4 35 19 35 13 0 23 -11 31 -36z m-3916 -276 c3 -13 6 -33 6 -45 0 -32 14 -28 47 14 24 30 34 35 55 30 23 -6 25 -12 31 -82 7 -92 -2 -129 -31 -133 -20 -3 -22 1 -22 51 0 29 -3 57 -7 60 -3 4 -21 -15 -40 -43 -34 -51 -65 -75 -87 -67 -10 4 -12 31 -9 109 3 56 6 109 8 116 7 21 42 14 49 -10z m506 2 c11 -20 -5 -40 -32 -40 -16 0 -18 -9 -18 -73 0 -79 -15 -115 -44 -104 -13 5 -16 22 -16 92 l0 87 -45 -3 c-51 -3 -59 2 -50 30 7 24 27 28 123 28 59 1 74 -3 82 -17z m-871 -15 c2 -11 9 -28 16 -39 12 -17 15 -15 39 23 19 30 33 41 51 41 19 0 25 -5 25 -22 0 -13 -7 -32 -15 -42 -14 -18 -13 -22 15 -47 34 -31 37 -54 14 -87 -30 -44 -156 -71 -181 -39 -11 13 -24 203 -16 225 7 20 47 10 52 -13z m1512 -2 c14 -16 47 -57 72 -92 37 -50 45 -66 36 -77 -17 -21 -35 -17 -57 11 -24 30 -33 31 -50 5 -15 -25 -52 -27 -52 -2 0 9 9 30 20 47 l19 29 -24 32 c-25 33 -31 55 -18 67 13 13 29 7 54 -20z m-271 7 c27 -15 14 -40 -21 -40 -28 0 -31 -5 -31 -45 0 -39 3 -45 26 -45 31 0 51 -23 34 -38 -21 -17 -179 -26 -188 -11 -9 14 7 34 37 43 40 13 38 71 -3 87 -13 4 -24 15 -24 24 0 14 17 21 75 28 58 8 77 7 95 -3z m1493 -14 c67 -27 87 -101 42 -154 -54 -64 -116 -64 -155 0 -30 49 -26 103 9 139 33 32 56 36 104 15z m347 -8 c41 0 74 -5 79 -12 18 -21 -46 -172 -84 -198 -5 -4 -19 -8 -31 -8 -16 0 -30 19 -63 90 -24 49 -41 97 -37 105 6 17 46 36 59 28 4 -3 39 -5 77 -5z m1558 -67 c2 -56 7 -78 20 -88 16 -12 15 -15 -7 -34 -22 -18 -33 -19 -90 -13 -36 3 -68 8 -71 11 -12 11 21 39 51 43 l34 5 3 65 c3 68 15 93 41 88 13 -3 17 -19 19 -77z m412 65 c27 -3 37 -27 39 -97 2 -53 -24 -80 -82 -86 -54 -6 -87 10 -117 60 -29 46 -25 71 16 107 33 28 42 31 78 26 23 -4 52 -8 66 -10z m777 6 c16 -10 22 -176 8 -191 -6 -6 -55 -12 -110 -13 l-100 -3 -1 87 c0 48 3 92 6 99 4 6 43 13 86 16 43 3 81 7 83 9 6 6 15 5 28 -4z m267 -2 c14 -5 32 -20 41 -34 15 -23 16 -28 1 -57 -9 -18 -16 -40 -16 -50 0 -37 -106 -80 -124 -50 -3 5 -9 47 -12 95 -7 84 -6 86 17 95 32 13 62 13 93 1z m-3756 -84 c2 -63 0 -82 -14 -97 -23 -26 -35 -12 -36 42 0 84 -3 89 -53 89 -37 0 -45 3 -45 18 0 29 10 33 80 30 l65 -3 3 -79z m1052 69 c0 -11 11 -15 40 -15 108 0 165 -87 104 -159 -31 -37 -81 -42 -131 -11 -41 25 -56 55 -50 97 4 19 1 43 -5 53 -6 9 -8 25 -5 34 8 20 47 21 47 1z m515 -11 c30 -33 31 -48 4 -75 -15 -15 -30 -20 -55 -17 -19 2 -34 1 -34 -3 0 -16 32 -31 56 -26 32 6 44 -18 21 -41 -13 -13 -25 -14 -64 -6 -86 17 -121 107 -64 165 40 40 101 41 136 3z m1470 1 c14 -13 25 -33 25 -43 0 -25 -35 -69 -60 -77 -31 -10 -13 -25 20 -18 37 7 42 -18 8 -41 -48 -34 -108 -11 -108 40 0 28 41 74 65 74 22 0 19 27 -4 35 -10 3 -23 5 -27 4 -21 -3 -34 2 -34 14 0 43 77 51 115 12z m-1130 2 c14 -11 19 -29 21 -78 3 -81 -5 -96 -60 -104 -71 -11 -81 0 -83 92 -1 43 0 84 2 91 6 17 96 16 120 -1z m-4132 -312 l32 -15 0 -89 c0 -121 -1 -122 -133 -115 -59 3 -110 8 -114 12 -4 4 -10 49 -14 99 -5 69 -4 96 6 108 17 21 179 21 223 0z m306 -40 c8 -17 20 -34 28 -38 19 -12 16 -41 -7 -62 -11 -10 -20 -28 -20 -41 0 -14 -8 -25 -21 -29 -25 -8 -36 1 -41 35 -2 16 -10 26 -23 28 -59 9 -66 13 -63 35 2 15 14 26 38 33 21 7 36 19 39 30 9 51 48 56 70 9z m1149 -2 c37 -28 58 -57 67 -93 13 -55 -70 -107 -146 -91 l-33 7 1 77 c3 142 26 164 111 100z m1149 21 c4 -11 -2 -23 -16 -33 -18 -14 -22 -25 -19 -62 2 -26 8 -44 15 -44 7 0 17 -5 24 -12 10 -10 9 -16 -1 -28 -13 -16 -56 -19 -109 -9 -36 8 -42 37 -11 54 29 15 29 90 1 90 -26 0 -34 15 -21 40 9 17 21 20 71 20 46 0 61 -4 66 -16z m3406 -25 c5 -22 18 -40 37 -51 20 -11 31 -27 36 -52 8 -47 -3 -105 -22 -113 -8 -3 -24 -25 -36 -49 -11 -24 -24 -44 -29 -44 -11 0 -29 34 -29 55 0 9 -18 33 -41 54 -37 36 -40 43 -37 82 2 37 8 47 35 64 22 14 32 28 33 46 0 27 18 51 34 46 6 -2 14 -19 19 -38z m-750 11 c3 -11 18 -25 34 -31 15 -5 42 -25 59 -42 18 -17 42 -32 55 -32 38 0 33 -45 -6 -59 -17 -6 -42 -23 -57 -38 -15 -16 -31 -28 -36 -28 -6 0 -13 -12 -17 -27 -15 -62 -49 -70 -71 -18 -8 19 -21 35 -28 35 -14 0 -60 48 -68 70 -2 6 -17 12 -33 14 -17 2 -33 4 -37 5 -5 0 -8 10 -8 21 0 21 34 44 54 37 7 -3 28 10 45 29 18 19 36 34 41 34 4 0 11 11 14 25 8 32 51 35 59 5z m-4630 4 c3 -4 27 -7 52 -9 60 -3 97 -30 107 -80 11 -51 -9 -81 -64 -95 -58 -16 -102 -5 -133 32 -21 24 -25 37 -19 57 4 14 8 40 9 56 1 17 3 33 3 38 2 9 36 10 45 1z m1532 -31 l16 -38 28 34 c20 24 33 32 46 28 11 -5 15 -13 10 -25 -20 -52 -17 -69 14 -91 34 -24 39 -42 17 -60 -11 -9 -25 -5 -64 19 -27 16 -52 30 -56 30 -3 0 -6 -12 -6 -27 0 -37 -13 -56 -36 -51 -17 3 -19 14 -22 97 -3 89 5 121 29 121 5 0 16 -17 24 -37z m-1003 -3 c28 -35 23 -67 -14 -90 -29 -18 -30 -20 -10 -20 32 0 30 -38 -4 -50 -41 -16 -61 -12 -100 22 -62 55 -66 110 -9 149 40 27 111 21 137 -11z m730 14 c22 -14 -20 -124 -67 -174 -18 -19 -25 -39 -27 -80 -4 -70 -23 -67 -23 3 0 43 -7 63 -37 112 -95 152 -94 153 42 149 56 -3 107 -7 112 -10z m1161 -29 c23 -20 48 -41 56 -47 12 -10 11 -14 -8 -27 -12 -9 -37 -28 -54 -42 -59 -49 -123 -47 -169 6 -16 18 -31 25 -59 25 -44 0 -68 22 -49 45 7 8 26 15 43 15 21 0 39 8 53 25 48 57 121 57 187 0z m610 21 c18 -18 37 -24 85 -28 69 -5 97 -23 107 -69 10 -46 -2 -67 -45 -79 -22 -6 -44 -18 -50 -28 -8 -12 -13 -13 -16 -4 -3 6 -16 12 -28 12 -39 0 -76 46 -76 95 0 32 -6 46 -25 63 -21 18 -24 26 -15 42 14 26 34 25 63 -4z m860 16 c26 -4 28 -8 24 -36 -7 -45 -52 -145 -76 -169 -21 -21 -21 -21 -35 -2 -8 11 -21 31 -28 45 -7 14 -27 45 -45 69 -39 51 -42 78 -10 91 23 10 122 11 170 2z m-1093 -18 c41 -25 59 -62 48 -102 -7 -27 -18 -38 -54 -53 -38 -17 -50 -19 -79 -9 -44 15 -75 54 -75 95 0 68 93 108 160 69z m609 -21 l43 -36 21 27 c39 49 77 10 41 -42 -14 -20 -13 -24 3 -47 10 -13 21 -25 26 -25 4 0 7 -9 7 -20 0 -30 -28 -36 -60 -11 -36 26 -36 26 -68 1 -22 -18 -27 -19 -40 -6 -12 12 -12 18 4 45 l18 31 -37 38 c-35 36 -45 61 -30 75 13 14 30 6 72 -30z m844 16 c47 -36 58 -145 19 -176 -38 -30 -132 -2 -157 48 -22 42 -18 83 11 118 32 38 87 43 127 10z m796 -21 c26 -27 20 -67 -14 -91 -30 -23 -34 -42 -4 -27 43 24 66 -11 29 -45 -17 -16 -28 -17 -68 -9 -45 9 -47 11 -50 46 -3 31 2 40 27 59 34 25 32 39 -4 39 -13 0 -27 5 -30 10 -26 42 77 58 114 18z m-4562 -276 c14 -9 29 -138 19 -175 -9 -37 -35 -42 -66 -12 -25 24 -60 34 -60 17 0 -17 -41 -51 -54 -46 -16 6 -28 160 -14 187 19 37 58 15 58 -33 0 -12 8 -17 27 -17 15 0 29 -6 31 -12 8 -23 21 1 16 28 -6 28 9 71 24 71 4 0 13 -4 19 -8z m693 -34 c13 -14 20 -35 20 -59 0 -35 16 -63 40 -71 6 -2 8 -11 5 -20 -5 -12 -24 -17 -73 -20 -37 -3 -75 -3 -84 0 -40 10 -6 52 41 52 16 0 21 6 21 28 0 41 -15 57 -50 54 -37 -4 -41 19 -8 42 31 22 64 20 88 -6z m-1093 -4 c8 -22 -14 -34 -63 -34 l-40 0 0 -65 c0 -53 -4 -70 -21 -87 -13 -13 -28 -18 -38 -14 -14 5 -16 19 -12 99 2 52 7 99 11 105 4 8 36 12 82 12 59 0 76 -3 81 -16z m808 -9 c0 -16 -8 -21 -42 -23 -24 -2 -43 -6 -43 -10 0 -3 23 -30 52 -59 47 -47 51 -55 37 -68 -15 -15 -53 -21 -121 -17 -30 2 -38 6 -38 22 0 14 10 22 32 28 l33 8 -48 49 c-26 26 -47 55 -45 64 4 21 41 30 118 28 58 -2 65 -4 65 -22z m-1628 -18 c22 -19 32 -19 65 5 13 9 20 10 29 1 12 -12 15 -159 4 -193 -9 -29 -49 -23 -53 8 -4 26 -5 26 -43 7 -20 -11 -35 -13 -46 -6 -15 8 -12 14 26 49 l42 39 -27 18 c-15 10 -38 29 -50 42 -19 20 -21 28 -12 43 13 20 32 17 65 -13z m2327 13 c6 -6 13 -47 15 -90 l3 -80 -46 0 c-81 0 -126 41 -126 115 0 21 31 57 60 68 21 9 81 0 94 -13z m395 -11 c6 -18 11 -60 11 -95 0 -68 -12 -84 -63 -84 -72 0 -108 39 -87 96 8 21 7 32 -5 51 -36 55 14 73 57 21 l27 -33 1 26 c0 53 42 66 59 18z m-2369 -28 c27 -27 51 -47 53 -43 3 4 7 20 11 37 11 42 24 55 59 55 29 0 30 -1 24 -42 -7 -53 -29 -97 -67 -138 -25 -26 -32 -29 -49 -20 -11 6 -26 20 -32 33 -6 12 -28 42 -48 67 -51 62 -54 69 -41 85 20 24 39 17 90 -34z m3110 34 c19 -23 26 -171 8 -188 -46 -46 -148 -9 -148 54 0 30 39 74 67 74 12 0 19 9 21 25 4 26 19 50 32 50 4 0 13 -7 20 -15z m-368 -18 c-4 -25 -133 -187 -148 -187 -20 0 -44 12 -44 21 0 11 122 156 149 177 21 17 47 10 43 -11z m659 -17 c8 -22 17 -30 35 -30 19 0 24 -5 24 -25 0 -14 -6 -25 -12 -25 -7 0 -20 -5 -28 -10 -24 -16 8 -31 51 -24 29 5 37 2 43 -12 11 -28 -14 -43 -80 -50 -83 -9 -91 0 -87 107 3 77 10 98 36 99 4 0 13 -13 18 -30z m377 18 c7 -7 12 -20 12 -29 0 -23 50 -32 57 -10 7 26 19 45 29 48 23 7 34 -18 40 -98 6 -71 4 -87 -10 -98 -25 -21 -44 -6 -48 35 -3 32 -7 38 -31 41 -28 4 -30 1 -42 -50 -4 -22 -11 -28 -28 -25 -20 3 -22 9 -25 86 -3 98 13 133 46 100z m466 -25 c55 -46 110 -119 102 -139 -10 -27 -40 -13 -93 44 l-55 57 -23 -48 c-31 -63 -43 -77 -66 -77 -27 0 -24 30 11 98 17 33 30 64 30 70 0 10 27 31 41 32 4 0 27 -17 53 -37z m1527 -56 c34 -45 68 -86 76 -90 18 -11 16 -44 -3 -51 -11 -4 -30 7 -56 34 l-41 40 -38 -41 c-61 -66 -82 -30 -28 47 l32 43 -27 35 c-29 39 -31 47 -15 63 19 19 35 5 100 -80z m-1159 72 c32 0 41 -5 65 -37 15 -20 40 -52 55 -70 32 -37 36 -70 11 -79 -12 -5 -29 8 -59 43 -34 39 -48 48 -69 46 -15 -2 -35 4 -46 14 -20 18 -21 17 -34 -40 -7 -33 -27 -56 -49 -56 -22 0 -21 43 5 125 l20 67 32 -7 c18 -4 49 -6 69 -6z m455 -3 c3 -2 7 -32 10 -65 4 -46 2 -66 -11 -86 -15 -23 -21 -25 -84 -22 -61 2 -67 4 -70 25 -3 17 2 25 16 29 14 3 18 11 14 25 -3 14 2 26 13 34 18 13 18 14 -2 14 -12 0 -28 3 -37 6 -19 7 -21 40 -3 48 13 6 147 0 154 -8z m407 6 c8 -13 -53 -176 -71 -189 -28 -21 -39 -16 -90 45 -26 31 -56 63 -65 70 -25 18 -22 48 4 66 17 12 48 16 120 16 53 0 99 -3 102 -8z m-5384 -339 c3 -12 19 -32 35 -44 17 -13 38 -32 48 -43 18 -20 23 -71 8 -80 -4 -3 -11 -19 -14 -35 -5 -24 -10 -28 -30 -24 -22 4 -25 0 -31 -36 l-6 -40 -38 13 c-33 12 -37 16 -34 45 3 26 -2 34 -27 49 -30 17 -51 56 -51 95 0 11 17 36 38 56 21 20 42 44 45 54 9 25 50 18 57 -10z m-363 -10 c47 -31 41 -80 -15 -118 l-37 -25 42 0 c48 0 63 -15 39 -38 -25 -26 -100 -23 -128 5 -18 19 -20 26 -10 47 6 14 25 32 42 41 47 24 35 55 -21 55 -24 0 -35 25 -21 43 14 16 78 10 109 -10z m1163 9 c0 -10 -13 -56 -28 -102 -25 -75 -32 -85 -54 -88 -22 -3 -36 9 -82 67 -31 38 -60 73 -66 76 -14 9 -12 21 5 39 12 11 28 14 58 10 23 -3 56 -1 72 5 52 16 95 13 95 -7z m-456 -71 c55 -71 81 -124 72 -146 -11 -29 -33 -12 -105 83 -73 95 -79 110 -59 130 17 17 41 0 92 -67z m838 55 c11 -16 9 -158 -1 -175 -7 -11 -37 -15 -111 -18 l-102 -3 7 102 c4 57 9 107 12 111 7 11 187 -4 195 -17z m364 1 c25 -21 26 -27 16 -55 -6 -17 -8 -47 -5 -66 4 -29 1 -37 -20 -51 -30 -19 -102 -28 -127 -15 -14 7 -18 27 -23 102 -2 51 -3 96 0 101 2 4 33 7 68 7 53 0 69 -4 91 -23z m2925 1 c7 -13 12 -24 11 -25 -1 -2 -2 -10 -2 -20 0 -9 12 1 30 25 33 46 41 50 61 26 11 -14 10 -21 -4 -46 -17 -30 -17 -32 3 -53 24 -26 26 -67 4 -86 -10 -8 -39 -19 -66 -25 -72 -17 -78 -9 -93 136 -3 31 -3 64 1 73 9 24 41 21 55 -5z m739 7 c7 -8 25 -15 41 -15 47 0 75 -17 93 -55 32 -67 -10 -135 -83 -135 -32 0 -44 6 -70 35 -28 32 -30 41 -29 102 0 38 3 71 5 76 7 12 30 8 43 -8z m-3354 -33 c7 -23 22 -38 55 -55 36 -18 45 -28 47 -53 6 -58 -61 -98 -132 -80 -26 6 -26 7 -26 117 0 109 0 110 23 107 15 -2 25 -14 33 -36z m2352 13 c15 -34 27 -151 15 -158 -5 -3 -47 -9 -94 -13 -77 -6 -87 -5 -93 11 -10 27 9 39 72 45 65 6 76 23 19 28 -33 3 -38 6 -35 25 2 13 12 23 28 27 18 4 26 13 28 33 4 36 44 38 60 2z m1496 19 c36 -14 4 -54 -43 -54 -28 0 -27 -23 1 -35 29 -14 35 -35 10 -42 -11 -3 -23 -11 -26 -19 -4 -11 6 -14 44 -14 54 0 73 -16 45 -37 -21 -15 -131 -18 -140 -4 -3 6 -8 53 -12 105 l-6 95 49 4 c27 2 52 4 56 5 3 1 13 -1 22 -4z m-2649 -15 c10 -16 -35 -186 -53 -202 -17 -15 -35 -21 -59 -18 -26 2 -119 171 -109 198 8 20 40 16 54 -7 9 -15 23 -20 52 -20 34 0 42 4 55 30 16 30 47 40 60 19z m397 -13 c15 -22 9 -144 -8 -160 -24 -25 -50 -4 -57 45 -6 45 -28 76 -46 65 -6 -4 -11 -34 -11 -66 0 -65 -17 -87 -52 -69 -15 8 -18 23 -18 83 0 71 1 75 31 100 29 25 36 26 93 20 33 -4 64 -12 68 -18z m374 16 c6 -4 14 -47 16 -95 7 -108 -5 -126 -86 -128 -146 -3 -151 1 -151 114 1 121 -3 117 112 117 54 0 103 -4 109 -8z m-1268 -14 c5 -7 12 -24 14 -37 5 -38 23 -35 52 9 43 65 94 49 54 -17 -18 -30 -18 -34 -4 -55 22 -31 20 -51 -8 -77 -36 -34 -104 -39 -133 -11 -20 18 -23 31 -23 98 0 89 19 125 48 90z m2380 -27 c12 -43 5 -153 -10 -162 -32 -21 -43 -5 -43 59 -1 72 -9 82 -68 82 -34 0 -38 3 -35 22 3 26 36 35 105 29 37 -3 44 -7 51 -30z m-2607 -2 c38 -41 38 -81 0 -120 -39 -38 -106 -41 -139 -6 -43 46 -45 114 -5 145 9 6 39 12 66 12 42 0 53 -4 78 -31z m-2026 -369 c39 -50 70 -96 70 -102 0 -6 -8 -16 -17 -22 -13 -8 -22 -5 -42 13 -23 22 -27 23 -43 9 -10 -8 -23 -14 -29 -11 -13 4 -7 40 8 60 7 8 -2 27 -26 59 -36 46 -42 64 -29 77 19 19 45 -1 108 -83z m-827 67 c6 -6 12 -28 14 -47 3 -30 6 -35 26 -32 13 2 30 -2 38 -8 12 -11 14 -7 14 23 0 48 9 67 31 67 18 0 23 -10 33 -75 3 -16 8 -40 12 -52 3 -13 3 -39 0 -58 -9 -45 -38 -47 -82 -4 l-32 31 -27 -26 c-14 -14 -35 -26 -45 -26 -18 0 -20 8 -21 75 -1 41 -2 85 -3 98 -4 38 21 59 42 34z m1335 -1 c13 -34 -32 -161 -73 -204 -31 -33 -49 -18 -120 100 -43 71 -49 95 -25 104 18 7 30 -5 80 -83 22 -34 43 -59 47 -57 4 3 17 36 28 74 18 61 28 76 51 79 4 1 9 -5 12 -13z m347 -11 c4 -11 8 -52 9 -91 2 -53 -2 -74 -13 -83 -26 -22 -44 -5 -56 53 -6 30 -20 66 -30 78 -17 20 -20 21 -34 8 -8 -8 -17 -35 -21 -60 -7 -49 -26 -77 -45 -65 -15 9 -3 111 18 147 19 33 29 36 106 34 49 -1 60 -5 66 -21z m311 15 c27 -15 24 -38 -6 -46 -21 -5 -25 -12 -25 -46 0 -32 4 -41 21 -45 14 -4 19 -12 17 -27 -3 -19 -10 -21 -70 -24 -64 -3 -68 -2 -68 18 0 14 8 24 20 27 18 5 21 12 18 52 -2 37 -7 47 -23 49 -30 6 -40 19 -25 37 15 18 110 21 141 5z m-1510 -44 c17 -27 25 -52 22 -68 -4 -19 0 -26 16 -31 24 -6 27 -29 6 -47 -13 -10 -47 -14 -113 -11 -35 2 -39 30 -8 55 22 17 26 27 21 48 -5 21 -12 26 -33 25 -36 -3 -42 30 -11 54 41 32 71 24 100 -25z m1820 28 c14 -13 20 -13 38 -2 35 21 44 -1 45 -109 1 -92 0 -98 -19 -98 -14 0 -21 8 -23 28 -4 32 -6 33 -39 7 -53 -41 -78 -11 -32 39 16 18 29 35 29 38 0 3 -14 23 -31 44 -32 40 -33 69 -3 69 10 0 25 -7 35 -16z m1604 6 c33 0 67 -5 75 -10 23 -15 -1 -44 -39 -48 l-31 -3 0 -63 c0 -44 -5 -67 -15 -76 -27 -22 -40 -5 -50 66 -10 68 -11 69 -42 72 -35 4 -58 24 -50 46 6 16 41 26 72 20 11 -2 47 -4 80 -4z m-1093 -18 c10 -10 8 -28 -6 -85 -20 -80 -39 -117 -61 -117 -15 0 -135 172 -135 194 0 7 3 16 8 20 11 12 181 1 194 -12z m258 3 c7 -8 29 -15 50 -15 47 0 85 -29 100 -76 22 -64 -7 -104 -86 -118 -36 -7 -88 25 -102 62 -8 21 -10 146 -3 160 4 8 30 0 41 -13z m468 -58 c3 -65 4 -67 30 -67 51 0 73 -11 70 -34 -4 -27 -21 -30 -135 -21 -83 6 -93 9 -93 26 0 13 12 25 34 34 30 13 34 19 39 65 7 60 13 72 35 68 14 -3 18 -17 20 -71z m1182 51 c39 -13 40 -14 40 -58 0 -66 -38 -109 -102 -115 -43 -4 -49 -2 -68 25 -12 17 -24 45 -27 64 -5 30 -1 40 25 66 34 34 67 38 132 18z m356 -109 c28 -42 42 -72 38 -82 -10 -26 -37 -20 -65 15 l-27 32 -31 -33 c-17 -18 -35 -30 -41 -26 -16 10 -11 48 10 75 21 27 26 55 10 65 -24 15 -30 43 -14 60 15 15 19 14 46 -12 16 -15 50 -58 74 -94z m378 87 c43 -18 66 -51 66 -98 0 -53 -32 -85 -97 -96 -51 -9 -52 -9 -62 19 -9 27 -6 163 5 180 8 13 50 11 88 -5z m412 -20 c36 -36 41 -58 24 -115 -17 -62 -62 -75 -136 -42 -104 47 -67 190 50 191 19 0 39 -11 62 -34z m-1638 -14 c2 -17 6 -32 10 -32 4 0 19 14 34 32 22 28 30 31 45 22 26 -16 31 -144 7 -168 -20 -21 -44 -5 -44 30 0 31 -6 30 -37 -6 -25 -31 -56 -39 -69 -18 -10 15 -5 124 7 155 13 36 43 27 47 -15z m1980 19 c12 -6 27 -20 34 -30 8 -10 25 -21 38 -23 19 -2 25 -9 25 -28 0 -20 -6 -26 -30 -28 -16 -2 -44 -17 -63 -33 -44 -39 -98 -40 -133 -3 -13 14 -34 30 -46 35 -27 10 -31 47 -5 56 9 4 23 15 31 26 30 41 99 55 149 28z m-4933 -323 c15 -14 19 -176 5 -193 -17 -21 -170 -22 -170 -1 0 22 22 33 73 38 26 3 50 8 53 11 13 13 -9 27 -42 27 -21 0 -34 5 -34 13 0 20 22 37 47 37 13 0 23 6 23 14 0 13 -41 26 -86 26 -29 0 -34 36 -6 43 25 7 125 -4 137 -15z m374 7 c32 -16 43 -44 28 -71 -15 -28 -28 -34 -71 -34 -38 0 -39 0 -21 -20 10 -11 31 -20 46 -20 35 0 44 -14 23 -34 -24 -25 -70 -20 -103 12 -60 58 -67 108 -22 153 33 33 75 38 120 14z m-1573 -16 c19 -18 25 -19 43 -7 29 18 47 5 99 -71 33 -50 40 -66 31 -77 -19 -23 -35 -16 -70 30 -28 35 -38 42 -55 35 -13 -4 -32 -2 -47 6 -31 16 -37 11 -66 -58 -19 -44 -42 -60 -55 -38 -7 10 49 168 66 188 15 18 28 16 54 -8z m349 13 c6 -4 18 -18 27 -32 10 -14 31 -44 48 -68 34 -48 37 -64 15 -82 -12 -10 -19 -6 -42 21 -16 18 -34 41 -41 51 -13 18 -16 17 -53 -23 -29 -32 -42 -40 -51 -31 -17 17 55 173 81 172 3 0 11 -4 16 -8z m425 -27 c4 -21 12 -31 28 -33 26 -4 30 -36 7 -50 -9 -4 -18 -23 -20 -42 -8 -61 -48 -66 -53 -7 -2 23 -9 37 -18 38 -8 1 -24 2 -36 3 -16 1 -24 8 -26 23 -3 18 3 23 32 29 31 5 36 10 36 33 0 15 3 31 7 35 15 15 38 -1 43 -29z m1136 -7 c66 -69 115 -140 112 -162 -5 -35 -33 -29 -63 14 -15 22 -31 40 -35 40 -5 0 -17 -16 -29 -35 -20 -34 -44 -45 -56 -26 -3 6 7 32 22 59 l27 48 -28 37 c-23 30 -26 40 -16 52 18 21 21 20 66 -27z m833 13 c28 -15 41 -30 51 -60 12 -37 11 -45 -6 -76 -26 -50 -77 -63 -137 -37 -53 23 -66 39 -68 82 -4 54 9 77 49 94 49 20 66 20 111 -3z m412 7 c8 -12 -48 -131 -84 -180 -34 -46 -37 -45 -114 72 -20 30 -42 59 -50 63 -12 7 -18 39 -9 48 2 2 60 5 127 6 85 2 125 -1 130 -9z m1881 -19 c25 -13 33 -49 14 -67 -14 -14 -18 -14 -39 6 -27 25 -37 20 -37 -19 0 -25 4 -28 38 -31 29 -2 38 -8 40 -25 4 -27 -7 -29 -115 -25 -63 3 -86 7 -90 18 -9 23 13 39 60 43 5 1 7 16 5 34 -3 28 -7 32 -32 32 -35 0 -46 23 -20 42 20 15 142 9 176 -8z m258 6 c7 -8 28 -15 48 -15 82 0 146 -86 108 -145 -9 -14 -29 -30 -43 -36 -15 -5 -32 -17 -39 -27 -12 -16 -13 -16 -19 1 -4 9 -13 17 -21 17 -7 0 -25 11 -41 24 -23 20 -28 32 -29 75 0 28 -3 54 -7 58 -9 8 -9 48 0 56 11 11 30 8 43 -8z m445 -67 c71 -90 85 -119 64 -144 -12 -15 -18 -12 -51 27 l-38 44 -34 -40 c-28 -33 -37 -38 -48 -27 -10 11 -8 22 16 66 l29 54 -22 31 c-23 33 -21 71 4 71 7 0 43 -37 80 -82z m-2371 66 c9 -3 16 -17 16 -30 0 -21 4 -24 41 -24 31 0 40 3 36 14 -8 21 16 49 39 44 14 -2 21 -15 26 -48 12 -80 9 -147 -7 -160 -27 -22 -45 -4 -45 44 0 40 -2 44 -27 48 -52 7 -63 0 -63 -41 0 -55 -41 -86 -55 -41 -11 36 -8 170 5 185 14 17 13 17 34 9z m416 -13 c0 -31 11 -51 27 -51 23 0 72 -32 78 -51 9 -26 -15 -67 -50 -89 -39 -24 -90 -26 -99 -4 -8 21 -8 199 1 207 14 15 43 7 43 -12z m415 5 c39 -2 73 -5 77 -5 12 -2 8 -168 -5 -179 -10 -9 -134 -16 -206 -13 -11 1 -13 19 -9 88 4 74 8 89 27 104 12 10 27 16 34 13 7 -2 44 -6 82 -8z m342 -27 c7 -38 16 -37 36 6 11 24 23 35 38 35 18 0 20 -4 15 -27 -19 -84 -19 -90 5 -112 18 -17 21 -25 13 -38 -16 -26 -29 -26 -63 3 l-31 26 -21 -25 c-11 -15 -26 -24 -34 -20 -20 7 -22 179 -2 186 22 7 38 -5 44 -34z m1604 31 c16 -9 19 -22 19 -93 0 -108 -7 -118 -88 -119 -66 -1 -87 8 -77 34 4 11 25 19 57 23 33 5 46 10 37 15 -7 5 -17 6 -21 4 -19 -12 -49 8 -46 29 2 17 11 23 41 25 48 4 52 32 5 32 -51 0 -78 11 -78 29 0 10 3 21 7 24 10 11 122 8 144 -3z m-3879 -27 c2 -19 10 -29 28 -33 33 -8 34 -44 3 -48 -40 -6 -24 -22 21 -22 30 0 46 -5 50 -15 8 -22 -21 -33 -86 -32 -52 0 -58 2 -59 21 0 12 -2 51 -5 89 -5 66 -4 67 20 67 19 0 25 -6 28 -27z m-1757 -370 c0 -56 -4 -105 -8 -110 -10 -9 -118 -19 -162 -15 -28 3 -32 8 -48 62 -10 33 -17 81 -15 107 4 57 11 60 143 59 l90 -1 0 -102z m225 78 c5 -11 10 -28 10 -39 0 -15 9 -22 38 -27 73 -13 95 -65 45 -105 -21 -16 -38 -20 -77 -18 l-51 3 -8 88 c-5 48 -6 95 -3 103 8 20 33 17 46 -5z m-624 -6 c3 -8 -4 -41 -15 -75 -12 -33 -21 -66 -21 -73 0 -8 -11 -24 -24 -37 -27 -24 -52 -22 -63 7 -4 10 -11 23 -15 28 -19 23 -78 128 -78 140 0 22 13 25 112 25 77 0 100 -3 104 -15z m1016 -13 c56 -67 100 -141 96 -163 -6 -42 -26 -31 -76 43 -27 41 -57 80 -66 87 -16 14 -21 42 -9 54 13 14 32 6 55 -21z m1617 12 c19 -14 22 -22 17 -53 -4 -20 -6 -55 -6 -78 1 -38 -3 -45 -32 -63 -19 -11 -51 -20 -75 -20 -46 0 -43 -7 -57 125 -2 22 -7 48 -11 58 -4 9 -5 24 -1 32 8 22 133 21 165 -1z m-1159 -4 c20 -13 2 -44 -29 -48 -11 -2 -21 -6 -21 -9 0 -3 20 -24 46 -46 31 -27 44 -46 42 -61 -3 -19 -10 -21 -86 -24 -69 -2 -83 0 -89 14 -7 19 12 34 45 34 31 0 28 8 -23 63 -37 41 -43 52 -34 68 8 16 21 19 72 19 34 0 69 -5 77 -10z m296 -51 c27 -34 60 -75 74 -91 24 -30 24 -30 5 -45 -19 -13 -24 -10 -70 40 -89 96 -105 116 -105 137 0 14 7 20 23 20 17 0 38 -18 73 -61z m1262 46 c8 -3 12 -29 12 -83 0 -105 -6 -111 -106 -119 -45 -3 -94 -3 -109 1 l-27 7 4 95 c3 62 8 98 17 103 12 8 185 5 209 -4z m300 -101 c4 -66 1 -88 -9 -95 -24 -15 -39 -10 -39 13 0 20 -1 20 -20 3 -24 -22 -55 -13 -45 13 18 42 15 58 -20 97 -40 45 -41 48 -20 65 13 11 21 8 48 -18 38 -37 52 -40 44 -12 -3 11 2 27 10 36 29 29 46 -5 51 -102z m-1054 17 c14 -59 16 -85 8 -93 -18 -18 -39 -2 -60 46 -20 44 -63 83 -81 72 -5 -4 -5 -20 1 -43 16 -64 15 -78 -8 -81 -24 -3 -42 29 -50 92 -5 33 -2 45 16 64 19 20 29 23 64 18 22 -3 48 -2 56 4 26 17 34 6 54 -79z m2128 28 c29 -48 32 -50 45 -33 7 10 13 23 13 30 0 20 29 44 45 38 20 -8 19 -23 -5 -78 l-19 -46 40 0 c27 0 42 -5 46 -16 10 -26 -8 -32 -114 -36 -97 -5 -103 -4 -103 14 0 11 9 22 20 25 27 7 25 18 -11 75 -17 26 -29 55 -25 63 11 29 36 15 68 -36z m500 1 c3 -25 7 -73 7 -107 1 -69 4 -67 -74 -64 -46 2 -85 33 -85 68 0 30 33 62 71 70 23 4 30 11 28 27 -3 48 1 57 24 54 18 -2 23 -11 29 -48z m266 18 l34 -33 22 28 c42 52 72 21 36 -38 l-22 -36 36 -35 c41 -40 44 -49 17 -63 -14 -8 -23 -5 -41 14 -30 32 -44 31 -58 0 -13 -27 -39 -33 -48 -11 -3 7 1 30 10 49 14 35 14 37 -19 78 -26 34 -31 47 -24 61 13 24 18 23 57 -14z m382 -30 l33 -53 20 48 c15 37 24 47 43 47 29 0 30 -14 4 -79 l-19 -50 32 -3 c24 -2 33 -8 35 -25 4 -25 -23 -36 -73 -29 -16 3 -54 5 -82 5 -46 1 -53 4 -53 21 0 10 9 24 20 30 20 11 20 12 -6 59 -27 48 -28 81 -1 81 8 0 29 -24 47 -52z m513 20 c13 -16 17 -31 12 -53 -3 -16 -8 -45 -12 -63 -3 -18 -16 -41 -29 -51 -22 -17 -101 -37 -111 -28 -2 3 -6 42 -9 87 -3 46 -9 90 -14 100 -15 29 7 39 79 34 53 -3 70 -9 84 -26z m-1889 6 c3 -9 -3 -28 -14 -44 -19 -27 -19 -27 0 -45 27 -24 25 -51 -5 -80 -18 -19 -35 -25 -70 -25 -55 0 -62 13 -67 122 -3 69 -2 73 20 76 16 2 22 -2 22 -15 0 -10 5 -25 10 -33 8 -12 15 -8 40 23 34 40 54 47 64 21z m-437 -15 c42 -26 55 -57 43 -98 -11 -40 -34 -62 -73 -71 -49 -10 -80 6 -106 54 -30 55 -21 93 30 118 44 23 64 23 106 -3z"/>
 <path d="M579 2863 c-6 -16 -7 -34 -2 -42 16 -26 28 -16 31 27 4 48 -13 57 -29 15z"/>
 <path d="M1357 2817 c-8 -22 4 -37 29 -37 31 0 31 24 0 38 -18 8 -25 8 -29 -1z"/>
 <path d="M3277 2825 c-16 -23 -17 -26 -2 -31 21 -8 50 20 42 40 -9 22 -19 20 -40 -9z"/>
 <path d="M2457 2873 c-12 -11 -8 -81 4 -89 8 -5 10 1 6 18 -8 30 14 65 33 53 8 -5 10 -20 7 -42 -6 -32 -5 -34 21 -31 24 3 27 7 26 36 -3 53 -10 62 -52 62 -21 0 -42 -3 -45 -7z"/>
 <path d="M5580 2780 c0 -5 4 -10 9 -10 6 0 13 5 16 10 3 6 -1 10 -9 10 -9 0 -16 -4 -16 -10z"/>
 <path d="M5920 2776 c0 -20 16 -29 40 -21 11 4 17 12 13 21 -7 19 -53 19 -53 0z"/>
 <path d="M232 2438 c3 -25 25 -33 48 -18 13 9 12 12 -4 25 -29 22 -48 19 -44 -7z"/>
 <path d="M2872 2508 c-16 -16 -15 -34 4 -63 18 -28 55 -33 74 -10 18 22 4 64 -26 75 -32 13 -37 13 -52 -2z"/>
 <path d="M5142 2497 c-7 -8 -7 -18 -2 -27 5 -8 10 -12 12 -10 2 3 12 15 22 28 19 22 19 22 -1 22 -11 0 -25 -6 -31 -13z"/>
 <path d="M5201 2446 c-15 -9 -20 -16 -12 -20 16 -10 51 3 51 20 0 17 -8 17 -39 0z"/>
 <path d="M6250 2500 c0 -14 26 -23 41 -15 8 6 7 10 -2 16 -19 12 -39 11 -39 -1z"/>
 <path d="M3670 2449 c0 -12 -8 -23 -20 -26 -24 -6 -26 -19 -4 -27 26 -10 51 -7 64 9 10 12 9 20 -4 40 -20 30 -36 32 -36 4z"/>
 <path d="M4010 2495 c-10 -12 -10 -19 -2 -27 9 -9 12 -8 12 5 0 9 8 21 18 26 15 9 15 10 1 11 -9 0 -22 -7 -29 -15z"/>
 <path d="M4390 2491 c0 -5 7 -11 15 -15 9 -3 15 0 15 9 0 8 -7 15 -15 15 -8 0 -15 -4 -15 -9z"/>
 <path d="M4400 2410 c0 -5 5 -10 11 -10 5 0 7 5 4 10 -3 6 -8 10 -11 10 -2 0 -4 -4 -4 -10z"/>
 <path d="M157 2163 c-10 -9 -8 -65 2 -81 5 -9 26 -12 67 -10 l59 3 -3 40 c-2 22 -6 43 -9 48 -5 9 -107 10 -116 0z m83 -32 c0 -21 -6 -32 -21 -36 -26 -9 -42 6 -33 29 5 14 28 29 52 35 1 1 2 -12 2 -28z"/>
 <path d="M1726 2098 c8 -53 9 -54 39 -40 31 14 31 22 0 56 -35 38 -46 33 -39 -16z"/>
 <path d="M6265 2067 c-4 -11 -3 -23 4 -30 15 -15 19 -7 11 23 -6 22 -8 23 -15 7z"/>
 <path d="M6340 2030 c0 -5 5 -10 10 -10 6 0 10 5 10 10 0 6 -4 10 -10 10 -5 0 -10 -4 -10 -10z"/>
 <path d="M5520 2031 c0 -5 5 -13 10 -16 6 -3 10 -2 10 4 0 5 -4 13 -10 16 -5 3 -10 2 -10 -4z"/>
 <path d="M1031 2105 c2 -11 -1 -26 -5 -34 -7 -11 -5 -13 8 -8 10 4 20 7 22 7 11 0 2 29 -12 41 -14 11 -16 10 -13 -6z"/>
 <path d="M1377 2126 c-15 -11 -16 -19 -9 -33 10 -17 11 -17 17 0 4 9 16 17 27 17 11 0 18 5 16 13 -6 17 -30 19 -51 3z"/>
 <path d="M2108 2123 c-22 -5 -22 -13 -3 -39 13 -16 16 -17 25 -4 20 30 10 50 -22 43z"/>
 <path d="M3268 2053 c6 -2 18 -2 25 0 6 3 1 5 -13 5 -14 0 -19 -2 -12 -5z"/>
 <path d="M4090 2055 c0 -8 5 -15 10 -15 6 0 10 7 10 15 0 8 -4 15 -10 15 -5 0 -10 -7 -10 -15z"/>
 <path d="M3647 2107 c-3 -8 -1 -20 4 -28 8 -12 11 -11 20 4 14 24 49 22 49 -3 0 -11 5 -20 10 -20 18 0 11 39 -9 50 -28 14 -68 13 -74 -3z"/>
 <path d="M2463 1773 c-29 -11 -8 -73 24 -73 14 0 17 37 7 64 -6 17 -11 18 -31 9z"/>
 <path d="M3606 1681 c-3 -5 1 -11 9 -15 15 -6 29 7 18 18 -9 9 -21 8 -27 -3z"/>
 <path d="M5558 1723 c7 -3 16 -2 19 1 4 3 -2 6 -13 5 -11 0 -14 -3 -6 -6z"/>
 <path d="M1342 1390 c-22 -9 -22 -11 -6 -35 9 -14 20 -25 24 -25 6 0 30 52 30 66 0 7 -24 3 -48 -6z"/>
 <path d="M2110 1391 c0 -11 21 -19 38 -14 21 8 13 23 -13 23 -14 0 -25 -4 -25 -9z"/>
 <path d="M2117 1304 c-4 -4 -4 -10 -1 -15 6 -10 34 0 34 12 0 10 -24 12 -33 3z"/>
 <path d="M5150 1290 c0 -5 9 -10 20 -10 11 0 20 5 20 10 0 6 -9 10 -20 10 -11 0 -20 -4 -20 -10z"/>
 <path d="M5936 1325 c-3 -8 -12 -15 -21 -15 -18 0 -20 -16 -3 -26 6 -4 14 -2 16 4 2 7 10 12 18 12 8 0 14 6 14 14 0 21 -17 29 -24 11z"/>
 <path d="M2520 1280 c0 -15 5 -20 18 -18 9 2 17 10 17 18 0 8 -8 16 -17 18 -13 2 -18 -3 -18 -18z"/>
 <path d="M3605 1290 c3 -5 10 -10 16 -10 5 0 9 5 9 10 0 6 -7 10 -16 10 -8 0 -12 -4 -9 -10z"/>
 <path d="M4320 1291 c0 -13 26 -32 33 -24 8 7 -11 33 -24 33 -5 0 -9 -4 -9 -9z"/>
 <path d="M3230 1270 c0 -5 11 -10 25 -10 14 0 25 5 25 10 0 6 -11 10 -25 10 -14 0 -25 -4 -25 -10z"/>
 <path d="M2876 1343 c-11 -28 12 -53 49 -53 28 0 35 4 35 19 0 23 -18 38 -52 45 -18 3 -28 -1 -32 -11z"/>
 <path d="M3285 940 c0 -18 5 -30 13 -30 9 0 12 10 10 27 -4 37 -23 40 -23 3z"/>
 <path d="M4771 1001 c-7 -5 -11 -15 -9 -22 3 -10 8 -7 17 9 13 24 12 26 -8 13z"/>
 <path d="M4795 940 c-19 -8 -19 -9 3 -9 12 -1 22 4 22 9 0 6 -1 10 -2 9 -2 0 -12 -4 -23 -9z"/>
 <path d="M5558 964 c-6 -5 0 -65 7 -72 11 -12 35 10 35 32 0 23 -31 52 -42 40z"/>
 <path d="M6278 963 c7 -3 16 -2 19 1 4 3 -2 6 -13 5 -11 0 -14 -3 -6 -6z"/>
 <path d="M1697 653 c-4 -3 -7 -13 -7 -21 0 -12 2 -12 16 -1 9 8 29 12 43 11 20 -2 23 -1 11 7 -17 12 -53 14 -63 4z"/>
 <path d="M2875 632 c-27 -6 -35 -21 -23 -47 16 -35 45 -48 79 -35 33 14 38 40 12 62 -23 19 -43 25 -68 20z m61 -33 c9 -16 -21 -43 -41 -36 -13 5 -14 11 -5 27 12 22 35 26 46 9z"/>
 <path d="M3243 633 c-27 -5 -29 -20 -7 -51 20 -29 26 -28 47 7 29 49 23 56 -40 44z"/>
 <path d="M5586 565 c4 -8 1 -22 -6 -30 -17 -21 -6 -29 19 -15 25 13 26 26 7 46 -19 18 -27 18 -20 -1z"/>
 <path d="M4016 533 c-9 -9 -7 -33 3 -33 12 0 22 28 12 34 -5 3 -11 3 -15 -1z"/>
 <path d="M4325 592 c-3 -8 -5 -27 -5 -43 0 -22 5 -29 20 -29 13 0 20 7 20 19 0 10 7 24 15 31 20 16 48 -6 42 -32 -3 -11 0 -18 9 -18 10 0 14 12 14 39 l0 39 -55 4 c-39 2 -56 -1 -60 -10z"/>
 <path d="M540 248 c0 -53 11 -68 46 -68 47 0 49 12 7 54 -42 42 -53 45 -53 14z"/>
 <path d="M970 210 c0 -5 7 -10 15 -10 8 0 15 5 15 10 0 6 -7 10 -15 10 -8 0 -15 -4 -15 -10z"/>
 <path d="M188 294 c-7 -6 28 -70 43 -80 9 -5 24 25 31 61 2 14 -5 18 -33 21 -19 2 -38 2 -41 -2z"/>
 <path d="M2862 283 c3 -12 12 -17 28 -15 31 3 38 11 20 22 -25 16 -52 12 -48 -7z"/>
 <path d="M2870 190 c0 -5 9 -10 20 -10 11 0 20 5 20 10 0 6 -9 10 -20 10 -11 0 -20 -4 -20 -10z"/>
 <path d="M3187 254 c-4 -4 -7 -22 -7 -41 0 -31 2 -33 34 -33 19 0 37 4 40 8 7 11 -58 74 -67 66z"/>
 <path d="M5134 179 c-4 -7 1 -18 11 -26 27 -19 37 -16 33 9 -3 25 -32 36 -44 17z"/>
 <path d="M6295 241 c-7 -13 17 -24 40 -19 9 1 16 8 16 13 0 14 -48 19 -56 6z"/>
 <path d="M6300 150 c0 -5 7 -10 15 -10 8 0 15 5 15 10 0 6 -7 10 -15 10 -8 0 -15 -4 -15 -10z"/>
 <path d="M4410 150 c0 -5 7 -10 15 -10 8 0 15 5 15 10 0 6 -7 10 -15 10 -8 0 -15 -4 -15 -10z"/>
 <path d="M3970 207 c0 -13 11 -34 24 -46 20 -19 28 -21 45 -12 44 24 15 80 -41 81 -23 0 -28 -4 -28 -23z"/>
 </g>
<g id="layer103" fill="#fefefe" stroke="none">
 <path d="M0 1510 l0 -1510 3270 0 3270 0 0 1510 0 1510 -3270 0 -3270 0 0 -1510z m317 1444 c8 -22 -17 -40 -66 -48 l-39 -6 9 -42 c13 -58 -8 -132 -38 -136 -23 -3 -33 16 -29 58 1 14 -3 50 -10 80 -15 77 -7 94 47 101 87 12 119 10 126 -7z m598 -2 c25 -17 138 -179 137 -194 0 -10 4 -18 11 -18 8 0 8 -3 0 -11 -11 -11 -63 -2 -63 11 0 4 -30 46 -66 93 -49 65 -64 91 -59 107 7 21 22 25 40 12z m1263 -7 c55 -29 56 -31 58 -101 2 -78 -11 -106 -61 -130 -28 -13 -34 -22 -37 -55 -3 -30 0 -39 12 -39 9 0 25 -6 35 -14 16 -12 17 -16 6 -30 -8 -9 -28 -16 -47 -16 -41 0 -46 -22 -11 -51 l22 -19 -23 -19 c-26 -23 -19 -30 27 -29 41 1 59 -15 41 -37 -9 -10 -31 -15 -75 -15 -61 0 -64 1 -69 28 -8 38 -11 180 -4 187 3 4 19 7 34 9 27 3 28 5 26 47 -2 28 -10 50 -22 59 -25 21 -31 46 -32 134 0 47 4 82 12 91 16 19 73 19 108 0z m-1524 -8 c25 -18 27 -144 2 -182 -15 -23 -23 -26 -49 -21 -34 7 -83 48 -93 78 -9 29 15 85 47 113 33 27 66 32 93 12z m698 -28 c2 -14 16 -25 41 -34 42 -14 87 -51 87 -71 0 -20 -50 -74 -69 -74 -9 0 -21 -4 -26 -9 -6 -4 -26 -6 -46 -4 -36 5 -37 6 -43 57 -4 28 -13 63 -20 76 -13 26 -8 44 23 82 17 22 48 8 53 -23z m496 29 c5 -7 13 -49 17 -94 8 -100 -1 -113 -75 -112 -28 1 -56 -4 -62 -10 -8 -8 -15 -7 -25 4 -8 8 -19 12 -24 9 -5 -3 -18 -1 -29 5 -17 9 -20 21 -20 84 0 59 4 78 21 100 19 24 26 26 104 26 54 0 86 -4 93 -12z m1418 -18 c32 0 49 -7 73 -29 42 -39 41 -78 -1 -127 -28 -32 -36 -35 -67 -30 -48 8 -94 58 -97 105 -1 20 -5 49 -9 65 -10 35 10 51 39 30 11 -8 39 -14 62 -14z m-669 8 c8 -15 10 -20 22 -103 10 -66 4 -85 -31 -102 -63 -31 -100 -32 -158 -4 -35 16 -35 16 -38 91 -5 126 -5 126 125 129 48 1 74 -3 80 -11z m1121 -10 c2 -12 -5 -19 -22 -23 -14 -3 -38 -7 -52 -10 -34 -7 -26 -28 15 -36 17 -4 35 -9 38 -13 10 -9 -18 -36 -38 -36 -10 0 -21 -4 -24 -10 -4 -6 13 -10 45 -10 48 0 51 -2 48 -22 -2 -13 -11 -24 -23 -27 -11 -2 -23 -8 -27 -14 -11 -18 -61 -14 -81 6 -13 13 -22 43 -28 89 -15 116 -6 127 96 124 38 -1 50 -5 53 -18z m-860 -13 c26 -22 31 -23 42 -10 7 8 23 15 36 15 27 0 32 -27 12 -60 -11 -17 -8 -24 17 -50 27 -28 28 -31 12 -47 -15 -15 -19 -15 -51 2 l-35 19 -30 -28 c-43 -41 -72 -10 -36 38 21 27 19 44 -9 77 -15 18 -22 36 -19 49 7 27 25 25 61 -5z m2710 -8 c4 -35 18 -34 37 3 27 52 67 33 45 -21 -10 -24 -10 -33 4 -54 30 -46 13 -80 -56 -115 -23 -11 -32 -11 -52 -1 -21 12 -24 21 -28 100 -3 47 -1 94 4 104 14 27 42 17 46 -16z m357 -4 l7 -38 27 33 c15 17 33 32 40 32 20 0 23 -27 5 -55 -16 -25 -16 -27 5 -46 36 -34 24 -74 -35 -108 -42 -25 -104 -21 -105 8 -2 53 3 196 7 203 3 4 13 8 23 8 14 0 21 -10 26 -37z m318 4 l28 -19 6 21 c8 30 45 24 54 -9 14 -49 10 -177 -6 -190 -21 -17 -32 -5 -40 41 l-7 41 -32 -31 c-35 -34 -51 -39 -60 -16 -3 9 8 30 26 51 l32 37 -37 31 c-37 31 -48 60 -24 69 13 5 20 2 60 -26z m-1438 8 c28 -12 40 -13 50 -5 24 20 32 3 40 -76 5 -59 4 -79 -7 -85 -23 -15 -28 -11 -52 44 -27 61 -50 87 -76 87 -17 0 -19 -7 -17 -67 2 -62 0 -68 -19 -71 -18 -3 -22 4 -27 35 -13 78 -9 110 19 132 32 25 41 26 89 6z m326 -27 c22 -24 48 -53 56 -65 21 -31 31 -21 39 37 7 56 26 79 48 61 17 -14 6 -91 -23 -156 -26 -59 -50 -60 -91 -2 -38 53 -56 75 -88 109 -26 28 -25 58 2 58 9 0 34 -19 57 -42z m-1142 2 c4 -30 15 -38 45 -33 13 3 27 16 33 34 6 16 15 29 20 29 26 -1 36 -23 41 -93 4 -70 3 -75 -17 -82 -29 -9 -41 1 -41 36 0 27 -3 29 -35 29 -33 0 -35 -2 -35 -34 0 -40 -24 -66 -43 -47 -11 11 -28 167 -19 184 9 19 47 1 51 -23z m501 -16 c16 -49 15 -103 -3 -121 -12 -12 -19 -13 -38 -2 -13 7 -29 19 -35 27 -10 13 -16 10 -43 -21 -37 -42 -66 -41 -56 3 3 14 1 47 -4 71 -8 34 -7 47 4 58 18 18 45 7 45 -19 0 -12 7 -20 18 -21 9 0 27 -2 40 -5 19 -3 22 0 22 31 0 28 4 35 19 35 13 0 23 -11 31 -36z m-3916 -276 c3 -13 6 -33 6 -45 0 -32 14 -28 47 14 24 30 34 35 55 30 23 -6 25 -12 31 -82 7 -92 -2 -129 -31 -133 -20 -3 -22 1 -22 51 0 29 -3 57 -7 60 -3 4 -21 -15 -40 -43 -34 -51 -65 -75 -87 -67 -10 4 -12 31 -9 109 3 56 6 109 8 116 7 21 42 14 49 -10z m506 2 c11 -20 -5 -40 -32 -40 -16 0 -18 -9 -18 -73 0 -79 -15 -115 -44 -104 -13 5 -16 22 -16 92 l0 87 -45 -3 c-51 -3 -59 2 -50 30 7 24 27 28 123 28 59 1 74 -3 82 -17z m-871 -15 c2 -11 9 -28 16 -39 12 -17 15 -15 39 23 19 30 33 41 51 41 19 0 25 -5 25 -22 0 -13 -7 -32 -15 -42 -14 -18 -13 -22 15 -47 16 -16 30 -36 30 -46 0 -27 -28 -63 -57 -74 -17 -6 -23 -14 -19 -25 3 -8 2 -12 -4 -9 -6 3 -31 8 -56 10 -25 2 -51 9 -58 14 -13 11 -29 202 -18 229 7 20 46 10 51 -13z m1512 -2 c14 -16 47 -57 72 -92 37 -50 45 -66 36 -77 -17 -21 -35 -17 -57 11 -24 30 -33 31 -50 5 -15 -25 -52 -27 -52 -2 0 9 9 30 20 47 l19 29 -24 32 c-25 33 -31 55 -18 67 13 13 29 7 54 -20z m-271 7 c27 -15 14 -40 -21 -40 -28 0 -31 -5 -31 -45 0 -39 3 -45 26 -45 31 0 51 -23 34 -38 -21 -17 -179 -26 -188 -11 -9 14 7 34 37 43 40 13 38 71 -3 87 -13 4 -24 15 -24 24 0 14 17 21 75 28 58 8 77 7 95 -3z m1493 -14 c67 -27 87 -101 42 -154 -54 -64 -116 -64 -155 0 -30 49 -26 103 9 139 33 32 56 36 104 15z m347 -8 c41 0 74 -5 79 -12 21 -25 -70 -216 -102 -216 -7 0 -17 4 -24 8 -19 12 -96 180 -89 197 6 17 46 36 59 28 4 -3 39 -5 77 -5z m1558 -67 c2 -56 7 -78 20 -87 16 -11 15 -14 -8 -39 -16 -17 -31 -24 -44 -21 -11 3 -26 0 -34 -6 -10 -9 -12 -8 -10 3 2 10 -8 15 -34 17 -59 5 -46 47 17 54 30 3 30 4 33 68 3 68 15 93 41 88 13 -3 17 -19 19 -77z m412 66 c22 -3 26 -10 34 -60 11 -68 -1 -103 -41 -117 -16 -6 -36 -15 -47 -21 -10 -6 -21 -7 -25 -2 -3 5 -19 16 -34 26 -33 21 -67 73 -67 103 0 13 16 36 36 54 33 28 42 31 78 26 23 -4 52 -8 66 -9z m777 5 c18 -11 22 -177 5 -194 -9 -9 -43 -13 -110 -13 l-97 0 -1 87 c0 48 3 92 6 99 4 6 43 13 86 16 43 3 81 7 83 9 6 6 15 5 28 -4z m267 -2 c14 -5 32 -20 41 -34 15 -23 16 -28 1 -57 -9 -18 -16 -40 -16 -50 0 -37 -106 -80 -124 -51 -9 14 -19 169 -13 186 7 18 70 22 111 6z m-3756 -85 c2 -58 -1 -86 -12 -100 -21 -28 -37 -8 -38 46 0 84 -3 89 -53 89 -37 0 -45 3 -45 18 0 29 10 33 80 30 l65 -3 3 -80z m1052 70 c0 -11 11 -15 40 -15 108 0 165 -87 104 -159 -31 -37 -81 -42 -131 -11 -41 25 -56 55 -50 97 4 19 1 43 -5 53 -6 9 -8 25 -5 34 8 20 47 21 47 1z m515 -11 c30 -33 31 -48 4 -75 -15 -15 -30 -20 -55 -17 -19 2 -34 1 -34 -3 0 -16 32 -31 56 -26 16 3 27 0 31 -9 8 -21 -16 -44 -44 -44 -13 0 -34 -5 -45 -11 -11 -6 -18 -7 -14 -1 3 5 -4 18 -15 28 -55 50 -63 112 -20 155 40 40 101 41 136 3z m1470 1 c14 -13 25 -33 25 -43 0 -25 -35 -69 -60 -77 -31 -10 -13 -25 20 -18 56 11 27 -47 -30 -62 -32 -8 -70 25 -70 61 0 28 40 74 65 74 22 0 19 27 -4 35 -10 3 -23 5 -27 4 -21 -3 -34 2 -34 14 0 43 77 51 115 12z m-1130 2 c14 -11 19 -29 21 -78 3 -76 -4 -90 -50 -107 -29 -11 -40 -11 -64 2 -28 14 -28 17 -29 98 0 46 1 86 4 91 7 12 98 8 118 -6z m-4132 -312 l32 -15 0 -89 c0 -121 -1 -122 -133 -115 -59 3 -110 8 -114 12 -4 4 -10 50 -14 102 -8 113 -5 117 81 123 76 5 109 1 148 -18z m306 -40 c8 -17 20 -34 28 -38 19 -12 16 -41 -7 -62 -11 -10 -20 -28 -20 -41 0 -14 -8 -25 -21 -29 -25 -8 -36 1 -41 35 -2 16 -10 26 -23 28 -59 9 -66 13 -63 35 2 15 14 26 38 33 21 7 36 19 39 30 9 51 48 56 70 9z m1151 -4 c19 -15 44 -45 54 -66 17 -34 18 -41 5 -64 -26 -47 -133 -81 -162 -52 -12 12 -13 148 -1 183 14 46 44 45 104 -1z m1147 23 c4 -11 -2 -23 -16 -33 -18 -14 -22 -25 -19 -62 2 -26 8 -44 15 -44 7 0 17 -5 24 -12 10 -10 9 -16 -1 -28 -13 -16 -56 -19 -109 -9 -36 8 -42 37 -11 54 29 15 29 90 1 90 -26 0 -34 15 -21 40 9 17 21 20 71 20 46 0 61 -4 66 -16z m3406 -26 c5 -23 17 -39 33 -47 41 -18 56 -85 33 -150 -6 -17 -17 -31 -25 -31 -8 0 -14 -9 -14 -19 0 -10 -9 -29 -20 -42 -20 -24 -20 -24 -35 -5 -8 11 -15 28 -15 38 0 10 -18 36 -41 57 -37 36 -40 43 -37 82 2 37 8 47 35 64 22 14 32 28 33 46 0 27 18 51 34 46 6 -2 14 -19 19 -39z m-750 12 c3 -11 18 -25 34 -31 15 -5 42 -25 59 -42 18 -17 42 -32 55 -32 38 0 33 -45 -6 -59 -26 -10 -89 -62 -90 -76 0 -3 -7 -16 -14 -30 -28 -51 -57 -53 -77 -5 -8 19 -21 35 -28 35 -14 0 -60 48 -68 70 -2 6 -17 12 -33 14 -17 2 -33 4 -37 5 -5 0 -8 10 -8 21 0 21 34 44 54 37 7 -3 28 10 45 29 18 19 36 34 41 34 4 0 11 11 14 25 8 32 51 35 59 5z m-4630 4 c3 -4 27 -7 52 -9 60 -3 97 -30 107 -80 11 -51 -8 -78 -67 -98 -41 -13 -52 -13 -80 -1 -47 19 -78 62 -69 94 4 14 8 39 9 55 1 17 3 33 3 38 2 9 36 10 45 1z m1532 -31 l16 -38 28 34 c20 24 33 32 46 28 11 -5 15 -13 10 -25 -20 -52 -17 -69 14 -91 34 -24 39 -42 17 -60 -11 -9 -25 -5 -64 19 -27 16 -52 30 -56 30 -3 0 -6 -12 -6 -27 0 -37 -13 -56 -36 -51 -17 3 -19 14 -22 97 -3 89 5 121 29 121 5 0 16 -17 24 -37z m-1003 -3 c28 -35 23 -67 -14 -90 -29 -18 -30 -20 -10 -20 14 0 22 -6 22 -18 0 -25 -19 -42 -48 -42 -16 0 -21 -4 -15 -12 9 -16 -65 42 -89 69 -34 38 -27 95 15 122 42 28 113 24 139 -9z m730 14 c22 -14 -20 -124 -67 -174 -18 -19 -25 -39 -27 -80 -4 -70 -23 -67 -23 3 0 43 -7 63 -37 112 -95 152 -94 153 42 149 56 -3 107 -7 112 -10z m1161 -29 c23 -20 48 -41 56 -47 12 -10 11 -14 -8 -27 -12 -9 -37 -28 -54 -42 -59 -49 -123 -47 -169 6 -16 18 -31 25 -59 25 -44 0 -68 22 -49 45 7 8 26 15 43 15 21 0 39 8 53 25 48 57 121 57 187 0z m610 21 c18 -18 37 -24 85 -28 69 -5 97 -23 107 -69 10 -46 -2 -66 -48 -81 -23 -8 -41 -19 -39 -26 1 -7 -5 -12 -13 -12 -8 0 -15 5 -15 11 0 6 -9 8 -20 4 -33 -10 -80 49 -80 100 0 32 -6 47 -25 63 -21 18 -24 26 -15 42 14 26 34 25 63 -4z m860 17 c20 -4 27 -11 27 -28 0 -21 -40 -122 -61 -155 -5 -8 -12 -23 -15 -32 -4 -10 -15 -18 -26 -18 -10 0 -16 5 -13 10 3 6 -3 23 -14 39 -12 16 -21 32 -21 36 0 3 -16 27 -35 52 -41 53 -44 80 -12 93 23 10 122 11 170 3z m-1093 -19 c41 -25 59 -62 48 -102 -7 -27 -18 -38 -54 -53 -38 -17 -50 -19 -79 -9 -44 15 -75 54 -75 95 0 68 93 108 160 69z m609 -21 l43 -36 21 27 c39 49 77 10 41 -42 -14 -20 -13 -24 3 -47 10 -13 21 -25 26 -25 4 0 7 -9 7 -20 0 -30 -28 -36 -60 -11 -36 26 -36 26 -68 1 -22 -18 -27 -19 -40 -6 -12 12 -12 18 4 45 l18 31 -37 38 c-35 36 -45 61 -30 75 13 14 30 6 72 -30z m844 16 c47 -36 58 -145 19 -176 -38 -30 -132 -2 -157 48 -22 42 -18 83 11 118 32 38 87 43 127 10z m796 -21 c26 -27 20 -67 -14 -91 -30 -23 -34 -42 -4 -27 24 13 49 7 49 -13 0 -25 -39 -51 -76 -50 -46 1 -64 18 -64 59 0 25 7 39 30 55 33 25 31 39 -5 39 -13 0 -27 5 -30 10 -26 42 77 58 114 18z m-1602 -175 c-4 -3 -10 -3 -14 0 -3 4 0 7 7 7 7 0 10 -3 7 -7z m-2960 -101 c14 -9 29 -138 19 -175 -9 -37 -35 -42 -66 -12 -25 24 -60 34 -60 17 0 -17 -41 -51 -54 -46 -16 6 -28 160 -14 187 19 37 58 15 58 -33 0 -12 8 -17 27 -17 15 0 29 -6 31 -12 8 -23 21 1 16 28 -6 28 9 71 24 71 4 0 13 -4 19 -8z m693 -34 c13 -14 20 -35 20 -59 0 -36 16 -63 41 -71 9 -3 9 -9 1 -24 -9 -17 -20 -19 -74 -18 -92 1 -98 3 -98 19 0 17 30 35 59 35 16 0 21 6 21 28 0 41 -15 57 -50 54 -37 -4 -41 19 -8 42 31 22 64 20 88 -6z m-1093 -4 c8 -22 -14 -34 -63 -34 l-40 0 0 -65 c0 -53 -4 -70 -21 -87 -13 -13 -28 -18 -38 -14 -14 5 -16 19 -12 99 2 52 7 99 11 105 4 8 36 12 82 12 59 0 76 -3 81 -16z m808 -9 c0 -16 -8 -21 -42 -23 -24 -2 -43 -6 -43 -10 0 -3 23 -30 52 -59 47 -47 51 -55 37 -68 -15 -15 -53 -21 -121 -17 -30 2 -38 6 -38 22 0 14 10 22 32 28 l33 8 -48 49 c-26 26 -47 55 -45 64 4 21 41 30 118 28 58 -2 65 -4 65 -22z m-1628 -18 c22 -19 32 -19 65 5 29 21 40 -3 40 -90 0 -102 -6 -122 -38 -122 -19 0 -24 5 -24 25 0 29 -2 30 -41 10 -20 -11 -35 -13 -46 -6 -15 8 -12 14 26 49 l42 39 -27 18 c-15 10 -38 29 -50 42 -19 20 -21 28 -12 43 13 20 32 17 65 -13z m2327 13 c6 -6 13 -47 15 -90 l3 -80 -46 0 c-81 0 -126 41 -126 115 0 21 31 57 60 68 21 9 81 0 94 -13z m395 -11 c6 -18 11 -60 11 -95 0 -68 -12 -84 -63 -84 -72 0 -108 39 -87 96 8 21 7 32 -5 51 -36 55 14 73 57 21 l27 -33 1 26 c0 53 42 66 59 18z m-2369 -28 c27 -27 51 -47 53 -43 3 4 7 20 11 37 11 42 24 55 59 55 29 0 30 -1 24 -42 -7 -53 -29 -97 -67 -138 -25 -26 -32 -29 -49 -20 -11 6 -26 20 -32 33 -6 12 -28 42 -48 67 -51 62 -54 69 -41 85 20 24 39 17 90 -34z m3110 34 c19 -23 26 -171 8 -188 -46 -46 -148 -9 -148 54 0 30 39 74 67 74 12 0 19 9 21 25 4 26 19 50 32 50 4 0 13 -7 20 -15z m-368 -19 c-2 -11 -27 -49 -56 -85 -30 -36 -58 -76 -65 -88 -10 -19 -15 -21 -41 -11 -17 5 -30 14 -30 19 0 11 122 156 149 177 22 17 47 10 43 -12z m659 -16 c8 -22 17 -30 35 -30 19 0 24 -5 24 -25 0 -14 -6 -25 -12 -25 -7 0 -20 -5 -28 -10 -24 -16 8 -31 51 -24 28 5 37 2 43 -11 8 -22 -10 -45 -36 -45 -11 0 -27 -4 -37 -10 -22 -11 -90 5 -92 23 -6 59 2 172 13 179 22 13 29 9 39 -22z m377 18 c7 -7 12 -20 12 -29 0 -23 50 -32 57 -10 7 26 19 45 29 48 23 7 34 -18 40 -98 6 -71 4 -87 -10 -98 -25 -21 -44 -6 -48 35 -3 32 -7 38 -31 41 -28 4 -30 1 -42 -50 -4 -22 -11 -28 -28 -25 -20 3 -22 9 -25 86 -3 98 13 133 46 100z m466 -25 c55 -46 110 -119 102 -139 -10 -27 -40 -13 -93 44 l-55 57 -23 -48 c-31 -63 -43 -77 -66 -77 -27 0 -24 30 11 98 17 33 30 64 30 70 0 10 27 31 41 32 4 0 27 -17 53 -37z m1527 -56 c34 -45 68 -86 76 -90 18 -11 16 -44 -3 -51 -11 -4 -30 7 -56 34 l-41 40 -38 -41 c-61 -66 -82 -30 -28 47 l32 43 -27 35 c-29 39 -31 47 -15 63 19 19 35 5 100 -80z m-1159 72 c32 0 41 -5 65 -37 15 -20 40 -52 55 -70 32 -37 36 -70 11 -79 -12 -5 -29 8 -59 43 -34 39 -48 48 -69 46 -15 -2 -35 4 -46 14 -20 18 -21 17 -34 -40 -7 -33 -27 -56 -49 -56 -22 0 -21 43 5 125 l20 67 32 -7 c18 -4 49 -6 69 -6z m455 -3 c3 -3 8 -34 10 -70 5 -59 3 -66 -19 -89 -22 -22 -32 -24 -74 -20 -27 2 -55 6 -61 8 -20 7 -15 46 6 52 13 3 17 11 13 25 -3 14 2 26 13 34 18 13 18 14 -2 14 -12 0 -28 3 -37 6 -19 7 -21 40 -3 48 14 6 147 0 154 -8z m406 7 c10 -16 -56 -190 -76 -203 -19 -11 -25 -8 -60 31 -22 24 -55 60 -73 80 -66 71 -35 99 108 99 53 0 99 -3 101 -7z m-5395 -315 c7 -7 12 -20 12 -29 0 -9 11 -24 24 -33 48 -31 76 -66 76 -96 0 -16 -4 -31 -9 -34 -4 -3 -11 -19 -14 -35 -5 -24 -10 -28 -30 -24 -22 4 -25 0 -31 -36 -7 -46 -7 -46 -53 -29 -31 11 -33 15 -27 45 5 29 3 35 -25 50 -34 20 -56 70 -47 108 3 13 22 36 41 51 19 14 35 32 35 38 0 13 20 36 30 36 3 0 11 -5 18 -12z m-351 -35 c47 -31 41 -80 -15 -118 l-37 -25 42 0 c48 0 63 -15 39 -38 -25 -26 -100 -23 -128 5 -18 19 -20 26 -10 47 6 14 25 32 42 41 47 24 35 55 -21 55 -24 0 -35 25 -21 43 14 16 78 10 109 -10z m1163 9 c0 -10 -13 -56 -28 -102 -25 -75 -32 -85 -54 -88 -22 -3 -36 9 -82 67 -31 38 -60 73 -66 76 -14 9 -12 21 5 39 12 11 28 14 58 10 23 -3 56 -1 72 5 52 16 95 13 95 -7z m-456 -71 c55 -71 81 -124 72 -146 -11 -29 -33 -12 -105 83 -73 95 -79 110 -59 130 17 17 41 0 92 -67z m838 55 c11 -16 9 -158 -1 -175 -7 -11 -37 -15 -111 -18 l-102 -3 7 102 c4 57 9 107 12 111 7 11 187 -4 195 -17z m364 1 c25 -21 26 -27 16 -55 -6 -17 -8 -47 -5 -66 5 -31 2 -37 -28 -55 -38 -23 -97 -27 -121 -8 -11 9 -17 37 -21 104 -3 50 -3 94 0 97 4 3 35 6 69 6 51 0 68 -4 90 -23z m2925 1 c7 -13 12 -24 11 -25 -1 -2 -2 -10 -2 -20 0 -9 12 1 30 25 33 46 41 50 61 26 11 -14 10 -21 -4 -46 -17 -30 -17 -32 3 -53 24 -26 26 -67 4 -86 -10 -8 -39 -19 -66 -25 -72 -17 -78 -9 -93 136 -3 31 -3 64 1 73 9 24 41 21 55 -5z m739 7 c7 -8 25 -15 41 -15 47 0 75 -17 93 -55 32 -67 -10 -135 -83 -135 -32 0 -44 6 -70 35 -28 32 -30 41 -29 102 0 38 3 71 5 76 7 12 30 8 43 -8z m-3354 -33 c7 -23 22 -38 55 -55 33 -17 45 -28 47 -49 4 -37 -12 -63 -49 -82 -38 -19 -50 -20 -84 -4 -25 11 -25 13 -25 120 0 108 0 109 23 106 15 -2 25 -14 33 -36z m2352 13 c15 -34 27 -151 15 -158 -5 -3 -47 -9 -94 -13 -77 -6 -87 -5 -93 11 -10 27 9 39 72 45 65 6 76 23 19 28 -33 3 -38 6 -35 25 2 13 12 23 28 27 18 4 26 13 28 33 4 36 44 38 60 2z m1496 19 c36 -14 4 -54 -43 -54 -28 0 -27 -23 1 -35 29 -14 35 -35 10 -42 -11 -3 -23 -11 -26 -19 -4 -11 6 -14 44 -14 54 0 73 -16 45 -37 -21 -15 -131 -18 -140 -4 -3 6 -8 53 -12 105 l-6 95 49 4 c27 2 52 4 56 5 3 1 13 -1 22 -4z m-2649 -15 c10 -16 -35 -186 -53 -202 -17 -15 -35 -21 -59 -18 -26 2 -119 171 -109 198 8 20 40 16 54 -7 9 -15 23 -20 52 -20 34 0 42 4 55 30 16 30 47 40 60 19z m397 -13 c15 -22 9 -144 -8 -160 -24 -25 -50 -4 -57 45 -6 45 -28 76 -46 65 -6 -4 -11 -34 -11 -66 0 -65 -17 -87 -52 -69 -15 8 -18 23 -18 83 0 71 1 75 31 100 29 25 36 26 93 20 33 -4 64 -12 68 -18z m374 16 c6 -4 14 -47 16 -95 5 -80 4 -90 -15 -108 -11 -10 -28 -20 -36 -21 -9 0 -28 -2 -42 -3 -14 -1 -31 -5 -37 -9 -6 -3 -13 -2 -17 4 -3 5 -19 10 -34 10 -45 0 -56 23 -56 114 1 120 -3 116 112 116 54 0 103 -4 109 -8z m-1268 -14 c5 -7 12 -24 14 -37 5 -38 23 -35 52 9 43 65 94 49 54 -17 -18 -30 -18 -34 -4 -55 22 -31 20 -51 -8 -77 -36 -34 -104 -39 -133 -11 -20 18 -23 31 -23 98 0 89 19 125 48 90z m2380 -27 c12 -43 5 -153 -10 -162 -32 -21 -43 -5 -43 59 -1 72 -9 82 -68 82 -34 0 -38 3 -35 22 3 26 36 35 105 29 37 -3 44 -7 51 -30z m-2607 -2 c38 -41 38 -81 0 -120 -39 -38 -106 -41 -139 -6 -43 46 -45 114 -5 145 9 6 39 12 66 12 42 0 53 -4 78 -31z m-2026 -369 c39 -50 70 -96 70 -102 0 -6 -8 -16 -17 -22 -13 -8 -22 -5 -42 13 -23 22 -27 23 -43 9 -10 -8 -23 -14 -29 -11 -13 4 -7 40 8 60 7 8 -2 27 -26 59 -36 46 -42 64 -29 77 19 19 45 -1 108 -83z m780 79 c4 -6 19 -7 36 -4 37 8 45 -12 48 -111 1 -53 -2 -74 -13 -83 -26 -22 -44 -5 -56 53 -6 30 -20 66 -30 78 -17 20 -20 21 -34 8 -8 -8 -17 -35 -21 -60 -7 -49 -26 -77 -45 -65 -15 9 -3 111 17 146 23 39 83 63 98 38z m-1607 -12 c6 -6 12 -28 14 -47 3 -30 6 -35 26 -32 13 2 30 -2 38 -8 12 -11 14 -7 14 23 0 48 9 67 31 67 18 0 23 -10 33 -75 3 -16 8 -40 12 -52 3 -13 3 -39 0 -58 -9 -45 -38 -47 -82 -4 l-32 31 -27 -26 c-14 -14 -35 -26 -45 -26 -18 0 -20 8 -21 75 -1 41 -2 85 -3 98 -4 38 21 59 42 34z m1335 -1 c13 -34 -32 -161 -73 -204 -31 -33 -49 -18 -120 100 -43 71 -49 95 -25 104 18 7 30 -5 80 -83 22 -34 43 -59 47 -57 4 3 17 36 28 74 18 61 28 76 51 79 4 1 9 -5 12 -13z m658 4 c27 -15 24 -38 -6 -46 -21 -5 -25 -12 -25 -46 0 -32 4 -41 21 -45 14 -4 19 -12 17 -27 -3 -19 -10 -21 -70 -24 -64 -3 -68 -2 -68 18 0 14 8 24 20 27 18 5 21 12 18 52 -2 37 -7 47 -23 49 -30 6 -40 19 -25 37 15 18 110 21 141 5z m-1507 -43 c11 -23 19 -54 17 -68 -1 -19 4 -28 19 -32 23 -6 26 -29 5 -47 -13 -10 -47 -14 -113 -11 -35 2 -39 30 -8 55 22 17 26 27 21 48 -5 21 -12 26 -33 25 -19 -1 -27 4 -30 17 -5 25 34 56 73 56 26 0 33 -6 49 -43z m1817 27 c14 -13 20 -13 38 -2 35 21 44 -1 45 -109 1 -92 0 -98 -19 -98 -14 0 -21 8 -23 28 -4 32 -6 33 -39 7 -53 -41 -78 -11 -32 39 16 18 29 35 29 38 0 3 -14 23 -31 44 -32 40 -33 69 -3 69 10 0 25 -7 35 -16z m1604 6 c33 0 67 -5 75 -10 23 -15 -1 -44 -39 -48 l-31 -3 0 -63 c0 -44 -5 -67 -15 -76 -27 -22 -40 -5 -50 66 -10 68 -11 69 -42 72 -35 4 -58 24 -50 46 6 16 41 26 72 20 11 -2 47 -4 80 -4z m-1093 -18 c26 -26 -44 -224 -73 -206 -15 9 -129 184 -129 198 0 7 3 16 8 20 11 12 181 1 194 -12z m258 3 c7 -8 29 -15 50 -15 47 0 85 -29 100 -76 22 -64 -7 -104 -86 -118 -36 -7 -88 25 -102 62 -8 21 -10 146 -3 160 4 8 30 0 41 -13z m468 -58 c3 -65 4 -67 30 -67 51 0 73 -11 70 -34 -4 -27 -21 -30 -135 -21 -83 6 -93 9 -93 26 0 13 12 25 34 34 30 13 34 19 39 65 7 60 13 72 35 68 14 -3 18 -17 20 -71z m1182 51 c39 -13 40 -14 40 -58 0 -66 -38 -110 -101 -117 -43 -5 -48 -3 -68 26 -12 17 -25 46 -28 65 -5 30 -1 40 25 66 34 34 67 38 132 18z m356 -109 c28 -42 42 -72 38 -82 -10 -26 -37 -20 -65 15 l-27 32 -31 -33 c-17 -18 -35 -30 -41 -26 -16 10 -11 48 10 75 21 27 26 55 10 65 -24 15 -30 43 -14 60 15 15 19 14 46 -12 16 -15 50 -58 74 -94z m378 87 c106 -44 81 -188 -35 -201 -45 -5 -47 -4 -57 24 -10 28 -7 165 4 182 8 13 50 11 88 -5z m412 -20 c36 -36 40 -58 24 -117 -8 -28 -19 -41 -46 -54 -35 -16 -37 -16 -81 7 -111 57 -82 197 41 198 19 0 39 -11 62 -34z m-1638 -14 c2 -17 6 -32 10 -32 4 0 19 14 34 32 22 28 30 31 45 22 26 -16 31 -144 7 -168 -20 -21 -44 -5 -44 30 0 13 -3 24 -8 24 -10 0 -37 -42 -37 -59 0 -8 -6 -16 -14 -19 -8 -3 -11 0 -7 7 4 7 -1 11 -13 11 -11 0 -23 5 -27 12 -10 15 -5 124 7 155 13 36 43 27 47 -15z m1980 19 c12 -6 27 -20 34 -30 8 -10 25 -21 38 -23 19 -2 25 -9 25 -28 0 -20 -6 -26 -29 -28 -17 -2 -47 -19 -69 -37 -47 -40 -84 -39 -132 5 -16 15 -38 30 -47 33 -10 4 -18 16 -18 27 0 11 8 24 18 27 9 4 23 15 31 26 30 41 99 55 149 28z m-4933 -323 c15 -14 19 -176 5 -193 -17 -21 -170 -22 -170 -1 0 22 22 33 73 38 26 3 50 8 53 11 13 13 -9 27 -42 27 -21 0 -34 5 -34 13 0 20 22 37 47 37 13 0 23 6 23 14 0 13 -41 26 -86 26 -29 0 -34 36 -6 43 25 7 125 -4 137 -15z m374 7 c32 -16 43 -44 28 -71 -15 -28 -28 -34 -71 -34 -38 0 -39 0 -21 -20 10 -11 31 -20 46 -20 35 0 44 -14 23 -34 -24 -25 -70 -20 -103 12 -60 58 -67 108 -22 153 33 33 75 38 120 14z m-1573 -16 c19 -18 25 -19 43 -7 29 18 47 5 99 -71 33 -50 40 -66 31 -77 -19 -23 -35 -16 -70 30 -28 35 -38 42 -55 35 -13 -4 -32 -2 -47 6 -31 16 -37 11 -66 -58 -19 -44 -42 -60 -55 -38 -7 10 49 168 66 188 15 18 28 16 54 -8z m349 13 c6 -4 18 -18 27 -32 10 -14 31 -44 48 -68 34 -48 37 -64 15 -82 -12 -10 -19 -6 -42 21 -16 18 -34 41 -41 51 -13 18 -16 17 -53 -23 -29 -32 -42 -40 -51 -31 -17 17 55 173 81 172 3 0 11 -4 16 -8z m425 -27 c4 -21 12 -31 28 -33 26 -4 30 -36 7 -50 -9 -4 -18 -23 -20 -42 -8 -61 -48 -66 -53 -7 -2 23 -9 37 -18 38 -8 1 -24 2 -36 3 -16 1 -24 8 -26 23 -3 18 3 23 32 29 31 5 36 10 36 33 0 15 3 31 7 35 15 15 38 -1 43 -29z m1136 -7 c60 -63 114 -138 114 -159 0 -10 -9 -23 -20 -29 -16 -9 -22 -7 -27 7 -9 24 -45 73 -54 73 -4 0 -16 -16 -28 -35 -20 -34 -44 -45 -56 -26 -3 6 7 32 22 59 l27 48 -28 37 c-23 30 -26 40 -16 52 18 21 21 20 66 -27z m833 13 c28 -15 41 -30 51 -60 12 -37 11 -45 -6 -76 -26 -50 -77 -63 -137 -37 -53 23 -66 39 -68 82 -4 54 9 77 49 94 49 20 66 20 111 -3z m412 7 c4 -6 -11 -47 -34 -91 -63 -119 -67 -127 -77 -127 -10 0 -37 34 -87 110 -20 30 -42 59 -50 63 -12 7 -18 39 -9 48 2 2 60 5 127 6 85 2 125 -1 130 -9z m1881 -19 c25 -13 33 -49 14 -67 -14 -14 -18 -14 -39 6 -27 25 -37 20 -37 -19 0 -25 4 -28 38 -31 29 -2 38 -8 40 -25 4 -27 -7 -29 -115 -25 -63 3 -86 7 -90 18 -9 23 13 39 60 43 5 1 7 16 5 34 -3 28 -7 32 -32 32 -35 0 -46 23 -20 42 20 15 142 9 176 -8z m258 6 c7 -8 28 -15 48 -15 82 0 146 -86 108 -145 -9 -14 -29 -30 -43 -36 -14 -5 -33 -19 -44 -32 l-18 -22 -1 22 c0 14 -5 21 -13 17 -7 -2 -26 9 -42 26 -25 26 -30 40 -31 80 0 28 -3 53 -7 57 -9 8 -9 48 0 56 11 11 30 8 43 -8z m445 -67 c73 -91 86 -122 62 -145 -16 -16 -21 -13 -67 47 l-20 25 -34 -40 c-28 -33 -37 -38 -48 -27 -10 11 -8 22 16 66 l29 54 -22 31 c-23 33 -21 71 4 71 7 0 43 -37 80 -82z m-2371 66 c9 -3 16 -17 16 -30 0 -21 4 -24 41 -24 31 0 40 3 36 14 -8 21 16 49 39 44 14 -2 21 -15 26 -48 12 -80 9 -147 -7 -160 -27 -22 -45 -4 -45 44 0 40 -2 44 -27 48 -52 7 -63 0 -63 -41 0 -55 -41 -86 -55 -41 -11 36 -8 170 5 185 14 17 13 17 34 9z m416 -13 c0 -31 11 -51 27 -51 23 0 72 -32 78 -51 9 -27 -15 -66 -56 -94 -46 -30 -75 -32 -89 -6 -11 21 -14 204 -3 214 14 15 43 7 43 -12z m415 5 c39 -2 73 -5 77 -5 12 -2 8 -168 -5 -179 -10 -9 -134 -16 -206 -13 -11 1 -13 19 -9 88 4 74 8 89 27 104 12 10 27 16 34 13 7 -2 44 -6 82 -8z m342 -27 c7 -38 16 -37 36 6 11 24 23 35 38 35 18 0 20 -4 15 -27 -19 -84 -19 -90 5 -112 18 -17 21 -25 13 -38 -16 -26 -29 -26 -63 3 l-31 26 -21 -25 c-11 -15 -26 -24 -34 -20 -20 7 -22 179 -2 186 22 7 38 -5 44 -34z m1604 31 c16 -9 19 -22 19 -93 0 -110 -9 -122 -90 -121 -64 1 -85 11 -75 36 4 11 25 19 57 23 33 5 46 10 37 15 -7 5 -17 6 -21 4 -19 -12 -49 8 -46 29 2 17 11 23 41 25 48 4 52 32 5 32 -51 0 -78 11 -78 29 0 10 3 21 7 24 10 11 122 8 144 -3z m-3879 -27 c2 -19 10 -29 28 -33 33 -8 34 -44 3 -48 -40 -6 -24 -22 21 -22 60 0 70 -25 20 -46 -26 -11 -40 -12 -47 -5 -7 7 -14 7 -23 0 -7 -6 -20 -9 -29 -7 -14 2 -17 20 -21 96 -4 92 -4 92 20 92 19 0 25 -6 28 -27z m-1757 -370 c0 -56 -4 -105 -8 -110 -10 -9 -118 -19 -162 -15 -28 3 -32 8 -48 62 -10 33 -17 81 -15 107 4 57 11 60 143 59 l90 -1 0 -102z m225 78 c5 -11 10 -28 10 -39 0 -15 9 -22 38 -27 73 -13 95 -65 45 -105 -21 -16 -38 -20 -77 -18 l-51 3 -8 88 c-5 48 -6 95 -3 103 8 20 33 17 46 -5z m-624 -6 c3 -8 -4 -41 -15 -75 -12 -33 -21 -66 -21 -73 0 -8 -11 -24 -24 -37 -27 -24 -52 -22 -63 7 -4 10 -11 23 -15 28 -19 23 -78 128 -78 140 0 22 13 25 112 25 77 0 100 -3 104 -15z m1016 -13 c56 -67 100 -141 96 -163 -6 -42 -26 -31 -76 43 -27 41 -57 80 -66 87 -16 14 -21 42 -9 54 13 14 32 6 55 -21z m1617 12 c19 -14 22 -22 17 -53 -4 -20 -6 -55 -6 -78 1 -38 -3 -45 -32 -63 -19 -11 -51 -20 -75 -20 -46 0 -43 -7 -57 125 -2 22 -7 48 -11 58 -4 9 -5 24 -1 32 8 22 133 21 165 -1z m-1159 -4 c20 -13 2 -44 -29 -48 -11 -2 -21 -6 -21 -9 0 -3 20 -24 46 -46 31 -27 44 -46 42 -61 -3 -19 -10 -21 -86 -24 -69 -2 -83 0 -89 14 -7 19 12 34 45 34 31 0 28 8 -23 63 -37 41 -43 52 -34 68 8 16 21 19 72 19 34 0 69 -5 77 -10z m296 -51 c27 -34 60 -75 74 -91 24 -30 24 -30 5 -45 -19 -13 -24 -10 -70 40 -89 96 -105 116 -105 137 0 14 7 20 23 20 17 0 38 -18 73 -61z m1262 46 c8 -3 12 -29 12 -83 0 -105 -6 -111 -106 -119 -45 -3 -94 -3 -109 1 l-27 7 4 95 c3 62 8 98 17 103 12 8 185 5 209 -4z m300 -101 c4 -66 1 -88 -9 -95 -24 -15 -39 -10 -39 13 0 20 -1 20 -20 3 -24 -22 -55 -13 -45 13 18 42 15 58 -20 97 -40 45 -41 48 -20 65 13 11 21 8 48 -18 38 -37 52 -40 44 -12 -3 11 2 27 10 36 29 29 46 -5 51 -102z m-1054 17 c14 -59 16 -85 8 -93 -18 -18 -39 -2 -60 46 -20 44 -63 83 -81 72 -5 -4 -5 -20 1 -43 16 -64 15 -78 -8 -81 -24 -3 -42 29 -50 92 -5 33 -2 45 16 64 19 20 29 23 64 18 22 -3 48 -2 56 4 26 17 34 6 54 -79z m2128 28 c29 -48 32 -50 45 -33 7 10 13 23 13 30 0 20 29 44 45 38 20 -8 19 -23 -5 -78 l-19 -46 40 0 c27 0 42 -5 46 -16 10 -26 -8 -32 -114 -36 -97 -5 -103 -4 -103 14 0 11 9 22 20 25 27 7 25 18 -11 75 -17 26 -29 55 -25 63 11 29 36 15 68 -36z m500 1 c3 -25 7 -73 7 -107 1 -69 4 -67 -74 -64 -46 2 -85 33 -85 68 0 30 33 62 71 70 23 4 30 11 28 27 -3 48 1 57 24 54 18 -2 23 -11 29 -48z m266 18 l34 -33 22 28 c42 52 72 21 36 -38 l-22 -36 36 -35 c41 -40 44 -49 17 -63 -14 -8 -23 -5 -41 14 -30 32 -44 31 -58 0 -13 -27 -39 -33 -48 -11 -3 7 1 30 10 49 14 35 14 37 -19 78 -26 34 -31 47 -24 61 13 24 18 23 57 -14z m382 -30 l33 -53 20 48 c15 37 24 47 43 47 29 0 30 -14 4 -79 l-19 -50 32 -3 c24 -2 33 -8 35 -25 4 -25 -23 -36 -73 -29 -16 3 -54 5 -82 5 -46 1 -53 4 -53 21 0 10 9 24 20 30 20 11 20 12 -6 59 -27 48 -28 81 -1 81 8 0 29 -24 47 -52z m513 20 c13 -16 17 -31 12 -53 -3 -16 -8 -45 -12 -63 -3 -18 -16 -41 -29 -51 -22 -17 -101 -37 -111 -28 -2 3 -6 42 -9 87 -3 46 -9 90 -14 100 -15 29 7 39 79 34 53 -3 70 -9 84 -26z m-1889 6 c3 -9 -3 -28 -14 -44 -19 -27 -19 -27 0 -45 27 -24 25 -51 -5 -80 -18 -19 -35 -25 -70 -25 -55 0 -62 13 -67 122 -3 69 -2 73 20 76 16 2 22 -2 22 -15 0 -10 5 -25 10 -33 8 -12 15 -8 40 23 34 40 54 47 64 21z m-437 -15 c42 -26 55 -57 43 -98 -11 -40 -34 -62 -73 -71 -49 -10 -80 6 -106 54 -30 55 -21 93 30 118 44 23 64 23 106 -3z"/>
 <path d="M579 2863 c-6 -16 -7 -34 -2 -42 16 -26 28 -16 31 27 4 48 -13 57 -29 15z"/>
 <path d="M1357 2817 c-8 -22 4 -37 29 -37 31 0 31 24 0 38 -18 8 -25 8 -29 -1z"/>
 <path d="M3277 2825 c-16 -23 -17 -26 -2 -31 21 -8 50 20 42 40 -9 22 -19 20 -40 -9z"/>
 <path d="M2457 2873 c-12 -11 -8 -81 4 -89 8 -5 10 1 6 18 -8 30 14 65 33 53 8 -5 10 -20 7 -42 -6 -32 -5 -34 21 -31 24 3 27 7 26 36 -3 53 -10 62 -52 62 -21 0 -42 -3 -45 -7z"/>
 <path d="M5580 2780 c0 -5 4 -10 9 -10 6 0 13 5 16 10 3 6 -1 10 -9 10 -9 0 -16 -4 -16 -10z"/>
 <path d="M5920 2776 c0 -20 16 -29 40 -21 11 4 17 12 13 21 -7 19 -53 19 -53 0z"/>
 <path d="M232 2438 c3 -25 25 -33 48 -18 13 9 12 12 -4 25 -29 22 -48 19 -44 -7z"/>
 <path d="M2872 2508 c-16 -16 -15 -34 4 -63 18 -28 55 -33 74 -10 18 22 4 64 -26 75 -32 13 -37 13 -52 -2z"/>
 <path d="M5142 2497 c-7 -8 -7 -18 -2 -27 5 -8 10 -12 12 -10 2 3 12 15 22 28 19 22 19 22 -1 22 -11 0 -25 -6 -31 -13z"/>
 <path d="M5201 2446 c-15 -9 -20 -16 -12 -20 16 -10 51 3 51 20 0 17 -8 17 -39 0z"/>
 <path d="M6250 2500 c0 -14 26 -23 41 -15 8 6 7 10 -2 16 -19 12 -39 11 -39 -1z"/>
 <path d="M3670 2449 c0 -12 -8 -23 -20 -26 -24 -6 -26 -19 -4 -27 26 -10 51 -7 64 9 10 12 9 20 -4 40 -20 30 -36 32 -36 4z"/>
 <path d="M4010 2495 c-10 -12 -10 -19 -2 -27 9 -9 12 -8 12 5 0 9 8 21 18 26 15 9 15 10 1 11 -9 0 -22 -7 -29 -15z"/>
 <path d="M4390 2491 c0 -5 7 -11 15 -15 9 -3 15 0 15 9 0 8 -7 15 -15 15 -8 0 -15 -4 -15 -9z"/>
 <path d="M4400 2410 c0 -5 5 -10 11 -10 5 0 7 5 4 10 -3 6 -8 10 -11 10 -2 0 -4 -4 -4 -10z"/>
 <path d="M157 2163 c-10 -9 -8 -65 2 -81 5 -9 26 -12 67 -10 l59 3 -3 40 c-2 22 -6 43 -9 48 -5 9 -107 10 -116 0z m83 -32 c0 -21 -6 -32 -21 -36 -26 -9 -42 6 -33 29 5 14 28 29 52 35 1 1 2 -12 2 -28z"/>
 <path d="M1726 2098 c8 -53 9 -54 39 -40 31 14 31 22 0 56 -35 38 -46 33 -39 -16z"/>
 <path d="M6265 2067 c-4 -11 -3 -23 4 -30 15 -15 19 -7 11 23 -6 22 -8 23 -15 7z"/>
 <path d="M6340 2030 c0 -5 5 -10 10 -10 6 0 10 5 10 10 0 6 -4 10 -10 10 -5 0 -10 -4 -10 -10z"/>
 <path d="M5520 2031 c0 -5 5 -13 10 -16 6 -3 10 -2 10 4 0 5 -4 13 -10 16 -5 3 -10 2 -10 -4z"/>
 <path d="M1031 2105 c2 -11 -1 -26 -5 -34 -7 -11 -5 -13 8 -8 10 4 20 7 22 7 11 0 2 29 -12 41 -14 11 -16 10 -13 -6z"/>
 <path d="M1377 2126 c-15 -11 -16 -19 -9 -33 10 -17 11 -17 17 0 4 9 16 17 27 17 11 0 18 5 16 13 -6 17 -30 19 -51 3z"/>
 <path d="M2108 2123 c-22 -5 -22 -13 -3 -39 13 -16 16 -17 25 -4 20 30 10 50 -22 43z"/>
 <path d="M3268 2053 c6 -2 18 -2 25 0 6 3 1 5 -13 5 -14 0 -19 -2 -12 -5z"/>
 <path d="M4090 2055 c0 -8 5 -15 10 -15 6 0 10 7 10 15 0 8 -4 15 -10 15 -5 0 -10 -7 -10 -15z"/>
 <path d="M3647 2107 c-3 -8 -1 -20 4 -28 8 -12 11 -11 20 4 14 24 49 22 49 -3 0 -11 5 -20 10 -20 18 0 11 39 -9 50 -28 14 -68 13 -74 -3z"/>
 <path d="M2463 1773 c-29 -11 -8 -73 24 -73 14 0 17 37 7 64 -6 17 -11 18 -31 9z"/>
 <path d="M3606 1681 c-3 -5 1 -11 9 -15 15 -6 29 7 18 18 -9 9 -21 8 -27 -3z"/>
 <path d="M5558 1723 c7 -3 16 -2 19 1 4 3 -2 6 -13 5 -11 0 -14 -3 -6 -6z"/>
 <path d="M1342 1390 c-22 -9 -22 -11 -6 -35 9 -14 20 -25 24 -25 6 0 30 52 30 66 0 7 -24 3 -48 -6z"/>
 <path d="M2110 1391 c0 -11 21 -19 38 -14 21 8 13 23 -13 23 -14 0 -25 -4 -25 -9z"/>
 <path d="M2117 1304 c-4 -4 -4 -10 -1 -15 6 -10 34 0 34 12 0 10 -24 12 -33 3z"/>
 <path d="M5150 1290 c0 -5 9 -10 20 -10 11 0 20 5 20 10 0 6 -9 10 -20 10 -11 0 -20 -4 -20 -10z"/>
 <path d="M5936 1325 c-3 -8 -12 -15 -21 -15 -18 0 -20 -16 -3 -26 6 -4 14 -2 16 4 2 7 10 12 18 12 8 0 14 6 14 14 0 21 -17 29 -24 11z"/>
 <path d="M2520 1280 c0 -15 5 -20 18 -18 9 2 17 10 17 18 0 8 -8 16 -17 18 -13 2 -18 -3 -18 -18z"/>
 <path d="M3605 1290 c3 -5 10 -10 16 -10 5 0 9 5 9 10 0 6 -7 10 -16 10 -8 0 -12 -4 -9 -10z"/>
 <path d="M4320 1291 c0 -13 26 -32 33 -24 8 7 -11 33 -24 33 -5 0 -9 -4 -9 -9z"/>
 <path d="M3230 1270 c0 -5 11 -10 25 -10 14 0 25 5 25 10 0 6 -11 10 -25 10 -14 0 -25 -4 -25 -10z"/>
 <path d="M2876 1343 c-11 -28 12 -53 49 -53 28 0 35 4 35 19 0 23 -18 38 -52 45 -18 3 -28 -1 -32 -11z"/>
 <path d="M3285 940 c0 -18 5 -30 13 -30 9 0 12 10 10 27 -4 37 -23 40 -23 3z"/>
 <path d="M4771 1001 c-7 -5 -11 -15 -9 -22 3 -10 8 -7 17 9 13 24 12 26 -8 13z"/>
 <path d="M4795 940 c-19 -8 -19 -9 3 -9 12 -1 22 4 22 9 0 6 -1 10 -2 9 -2 0 -12 -4 -23 -9z"/>
 <path d="M5558 964 c-6 -5 0 -65 7 -72 11 -12 35 10 35 32 0 23 -31 52 -42 40z"/>
 <path d="M6278 963 c7 -3 16 -2 19 1 4 3 -2 6 -13 5 -11 0 -14 -3 -6 -6z"/>
 <path d="M1697 653 c-4 -3 -7 -13 -7 -21 0 -12 2 -12 16 -1 9 8 29 12 43 11 20 -2 23 -1 11 7 -17 12 -53 14 -63 4z"/>
 <path d="M2875 632 c-27 -6 -35 -21 -23 -47 16 -35 45 -48 79 -35 33 14 38 40 12 62 -23 19 -43 25 -68 20z m61 -33 c9 -16 -21 -43 -41 -36 -13 5 -14 11 -5 27 12 22 35 26 46 9z"/>
 <path d="M3243 633 c-27 -5 -29 -20 -7 -51 20 -29 26 -28 47 7 29 49 23 56 -40 44z"/>
 <path d="M5586 565 c4 -8 1 -22 -6 -30 -17 -21 -6 -29 19 -15 25 13 26 26 7 46 -19 18 -27 18 -20 -1z"/>
 <path d="M4016 533 c-9 -9 -7 -33 3 -33 12 0 22 28 12 34 -5 3 -11 3 -15 -1z"/>
 <path d="M4325 592 c-3 -8 -5 -27 -5 -43 0 -22 5 -29 20 -29 13 0 20 7 20 19 0 10 7 24 15 31 20 16 48 -6 42 -32 -3 -11 0 -18 9 -18 10 0 14 12 14 39 l0 39 -55 4 c-39 2 -56 -1 -60 -10z"/>
 <path d="M540 248 c0 -53 11 -68 46 -68 47 0 49 12 7 54 -42 42 -53 45 -53 14z"/>
 <path d="M970 210 c0 -5 7 -10 15 -10 8 0 15 5 15 10 0 6 -7 10 -15 10 -8 0 -15 -4 -15 -10z"/>
 <path d="M188 294 c-7 -6 28 -70 43 -80 9 -5 24 25 31 61 2 14 -5 18 -33 21 -19 2 -38 2 -41 -2z"/>
 <path d="M2862 283 c3 -12 12 -17 28 -15 31 3 38 11 20 22 -25 16 -52 12 -48 -7z"/>
 <path d="M2870 190 c0 -5 9 -10 20 -10 11 0 20 5 20 10 0 6 -9 10 -20 10 -11 0 -20 -4 -20 -10z"/>
 <path d="M3187 254 c-4 -4 -7 -22 -7 -41 0 -31 2 -33 34 -33 19 0 37 4 40 8 7 11 -58 74 -67 66z"/>
 <path d="M5134 179 c-4 -7 1 -18 11 -26 27 -19 37 -16 33 9 -3 25 -32 36 -44 17z"/>
 <path d="M6295 241 c-7 -13 17 -24 40 -19 9 1 16 8 16 13 0 14 -48 19 -56 6z"/>
 <path d="M6300 150 c0 -5 7 -10 15 -10 8 0 15 5 15 10 0 6 -7 10 -15 10 -8 0 -15 -4 -15 -10z"/>
 <path d="M4410 150 c0 -5 7 -10 15 -10 8 0 15 5 15 10 0 6 -7 10 -15 10 -8 0 -15 -4 -15 -10z"/>
 <path d="M3970 207 c0 -13 11 -34 24 -46 20 -19 28 -21 45 -12 44 24 15 80 -41 81 -23 0 -28 -4 -28 -23z"/>
 </g>

</svg>